G04*
G04 #@! TF.GenerationSoftware,Altium Limited,Altium Designer,24.0.1 (36)*
G04*
G04 Layer_Color=2752767*
%FSLAX25Y25*%
%MOIN*%
G70*
G04*
G04 #@! TF.SameCoordinates,A2E01C4A-C41F-4235-85C4-DC12FCC8AE1E*
G04*
G04*
G04 #@! TF.FilePolarity,Positive*
G04*
G01*
G75*
%ADD10C,0.00500*%
%ADD106C,0.00667*%
D10*
X305000Y406000D02*
X303000Y410000D01*
X307000D01*
X305000Y406000D01*
Y406800D02*
X303800Y409200D01*
X306200D01*
X305000Y406800D01*
X574000Y212000D02*
X572000Y216000D01*
X576000D01*
X574000Y212000D01*
Y212800D02*
X572800Y215200D01*
X575200D01*
X574000Y212800D01*
Y478000D02*
X572000Y482000D01*
X576000D01*
X574000Y478000D01*
Y478800D02*
X572800Y481200D01*
X575200D01*
X574000Y478800D01*
X225839Y310996D02*
X226839D01*
X227839Y311996D01*
X228839Y310996D01*
X229839D01*
Y311996D01*
X228839Y312996D01*
X229839Y313996D01*
Y314996D01*
X228839D01*
X227839Y313996D01*
X226839Y314996D01*
X225839D01*
Y313996D01*
X226839Y312996D01*
X225839Y311996D01*
Y310996D01*
X228004Y313161D02*
X229004D01*
X230004Y314161D01*
X231004Y313161D01*
X232004D01*
Y314161D01*
X231004Y315161D01*
X232004Y316161D01*
Y317161D01*
X231004D01*
X230004Y316161D01*
X229004Y317161D01*
X228004D01*
Y316161D01*
X229004Y315161D01*
X228004Y314161D01*
Y313161D01*
X232335D02*
X233335D01*
X234335Y314161D01*
X235335Y313161D01*
X236335D01*
Y314161D01*
X235335Y315161D01*
X236335Y316161D01*
Y317161D01*
X235335D01*
X234335Y316161D01*
X233335Y317161D01*
X232335D01*
Y316161D01*
X233335Y315161D01*
X232335Y314161D01*
Y313161D01*
X225839Y306665D02*
X226839D01*
X227839Y307665D01*
X228839Y306665D01*
X229839D01*
Y307665D01*
X228839Y308665D01*
X229839Y309665D01*
Y310665D01*
X228839D01*
X227839Y309665D01*
X226839Y310665D01*
X225839D01*
Y309665D01*
X226839Y308665D01*
X225839Y307665D01*
Y306665D01*
X230169Y310996D02*
X231169D01*
X232169Y311996D01*
X233169Y310996D01*
X234169D01*
Y311996D01*
X233169Y312996D01*
X234169Y313996D01*
Y314996D01*
X233169D01*
X232169Y313996D01*
X231169Y314996D01*
X230169D01*
Y313996D01*
X231169Y312996D01*
X230169Y311996D01*
Y310996D01*
X228004Y308831D02*
X229004D01*
X230004Y309831D01*
X231004Y308831D01*
X232004D01*
Y309831D01*
X231004Y310831D01*
X232004Y311831D01*
Y312831D01*
X231004D01*
X230004Y311831D01*
X229004Y312831D01*
X228004D01*
Y311831D01*
X229004Y310831D01*
X228004Y309831D01*
Y308831D01*
Y304500D02*
X229004D01*
X230004Y305500D01*
X231004Y304500D01*
X232004D01*
Y305500D01*
X231004Y306500D01*
X232004Y307500D01*
Y308500D01*
X231004D01*
X230004Y307500D01*
X229004Y308500D01*
X228004D01*
Y307500D01*
X229004Y306500D01*
X228004Y305500D01*
Y304500D01*
X230169Y306665D02*
X231169D01*
X232169Y307665D01*
X233169Y306665D01*
X234169D01*
Y307665D01*
X233169Y308665D01*
X234169Y309665D01*
Y310665D01*
X233169D01*
X232169Y309665D01*
X231169Y310665D01*
X230169D01*
Y309665D01*
X231169Y308665D01*
X230169Y307665D01*
Y306665D01*
X234500Y310996D02*
X235500D01*
X236500Y311996D01*
X237500Y310996D01*
X238500D01*
Y311996D01*
X237500Y312996D01*
X238500Y313996D01*
Y314996D01*
X237500D01*
X236500Y313996D01*
X235500Y314996D01*
X234500D01*
Y313996D01*
X235500Y312996D01*
X234500Y311996D01*
Y310996D01*
Y306665D02*
X235500D01*
X236500Y307665D01*
X237500Y306665D01*
X238500D01*
Y307665D01*
X237500Y308665D01*
X238500Y309665D01*
Y310665D01*
X237500D01*
X236500Y309665D01*
X235500Y310665D01*
X234500D01*
Y309665D01*
X235500Y308665D01*
X234500Y307665D01*
Y306665D01*
X232335Y308831D02*
X233335D01*
X234335Y309831D01*
X235335Y308831D01*
X236335D01*
Y309831D01*
X235335Y310831D01*
X236335Y311831D01*
Y312831D01*
X235335D01*
X234335Y311831D01*
X233335Y312831D01*
X232335D01*
Y311831D01*
X233335Y310831D01*
X232335Y309831D01*
Y308831D01*
Y304500D02*
X233335D01*
X234335Y305500D01*
X235335Y304500D01*
X236335D01*
Y305500D01*
X235335Y306500D01*
X236335Y307500D01*
Y308500D01*
X235335D01*
X234335Y307500D01*
X233335Y308500D01*
X232335D01*
Y307500D01*
X233335Y306500D01*
X232335Y305500D01*
Y304500D01*
X271693Y449000D02*
Y453000D01*
X275693D01*
Y449000D01*
X271693D01*
Y459000D02*
Y463000D01*
X275693D01*
Y459000D01*
X271693D01*
Y469000D02*
Y473000D01*
X275693D01*
Y469000D01*
X271693D01*
X304000Y431937D02*
X302000Y435937D01*
X306000D01*
X304000Y431937D01*
Y424063D02*
X302000Y428063D01*
X306000D01*
X304000Y424063D01*
X570737Y265514D02*
X568737Y269514D01*
X572737D01*
X570737Y265514D01*
Y273389D02*
X568737Y277389D01*
X572737D01*
X570737Y273389D01*
Y281262D02*
X568737Y285262D01*
X572737D01*
X570737Y281262D01*
Y289137D02*
X568737Y293137D01*
X572737D01*
X570737Y289137D01*
Y297010D02*
X568737Y301010D01*
X572737D01*
X570737Y297010D01*
Y304885D02*
X568737Y308885D01*
X572737D01*
X570737Y304885D01*
Y312758D02*
X568737Y316758D01*
X572737D01*
X570737Y312758D01*
Y320633D02*
X568737Y324633D01*
X572737D01*
X570737Y320633D01*
Y328507D02*
X568737Y332507D01*
X572737D01*
X570737Y328507D01*
Y336381D02*
X568737Y340381D01*
X572737D01*
X570737Y336381D01*
X571026Y355043D02*
X569026Y359043D01*
X573026D01*
X571026Y355043D01*
Y362917D02*
X569026Y366917D01*
X573026D01*
X571026Y362917D01*
Y370791D02*
X569026Y374791D01*
X573026D01*
X571026Y370791D01*
Y378665D02*
X569026Y382665D01*
X573026D01*
X571026Y378665D01*
Y386539D02*
X569026Y390539D01*
X573026D01*
X571026Y386539D01*
Y394413D02*
X569026Y398413D01*
X573026D01*
X571026Y394413D01*
Y402287D02*
X569026Y406287D01*
X573026D01*
X571026Y402287D01*
Y410161D02*
X569026Y414161D01*
X573026D01*
X571026Y410161D01*
Y418035D02*
X569026Y422035D01*
X573026D01*
X571026Y418035D01*
Y425909D02*
X569026Y429909D01*
X573026D01*
X571026Y425909D01*
X255000Y216000D02*
X256000Y217000D01*
X257000D01*
X256000Y218000D01*
X257000Y219000D01*
X256000D01*
X255000Y220000D01*
X254000Y219000D01*
X253000D01*
X254000Y218000D01*
X253000Y217000D01*
X254000D01*
X255000Y216000D01*
X242764D02*
X243764Y218000D01*
X242764Y220000D01*
X244764Y219000D01*
X246764Y220000D01*
X245764Y218000D01*
X246764Y216000D01*
X244764Y217000D01*
X242764Y216000D01*
X232764D02*
X233764Y218000D01*
X232764Y220000D01*
X234764Y219000D01*
X236764Y220000D01*
X235764Y218000D01*
X236764Y216000D01*
X234764Y217000D01*
X232764Y216000D01*
X247764Y226000D02*
X248764Y228000D01*
X247764Y230000D01*
X249764Y229000D01*
X251764Y230000D01*
X250764Y228000D01*
X251764Y226000D01*
X249764Y227000D01*
X247764Y226000D01*
X237764D02*
X238764Y228000D01*
X237764Y230000D01*
X239764Y229000D01*
X241764Y230000D01*
X240764Y228000D01*
X241764Y226000D01*
X239764Y227000D01*
X237764Y226000D01*
X218528Y227000D02*
Y226000D01*
X220528D01*
Y227000D01*
X221528D01*
Y229000D01*
X220528D01*
Y230000D01*
X218528D01*
Y229000D01*
X217528D01*
Y227000D01*
X218528D01*
X222764Y216000D02*
X223764Y218000D01*
X222764Y220000D01*
X224764Y219000D01*
X226764Y220000D01*
X225764Y218000D01*
X226764Y216000D01*
X224764Y217000D01*
X222764Y216000D01*
X227764Y226000D02*
X228764Y228000D01*
X227764Y230000D01*
X229764Y229000D01*
X231764Y230000D01*
X230764Y228000D01*
X231764Y226000D01*
X229764Y227000D01*
X227764Y226000D01*
X207152Y365459D02*
X209152Y367459D01*
X211152Y365459D01*
X209152Y363459D01*
X207152Y365459D01*
X267888Y296852D02*
Y300852D01*
X271888D01*
Y296852D01*
X267888D01*
X268688Y297652D02*
Y300052D01*
X271088D01*
Y297652D01*
X268688D01*
X262513Y296711D02*
Y300711D01*
X266513D01*
Y296711D01*
X262513D01*
X263313Y297511D02*
Y299911D01*
X265713D01*
Y297511D01*
X263313D01*
X277989Y335697D02*
Y339697D01*
X281989D01*
Y335697D01*
X277989D01*
X278788Y336497D02*
Y338897D01*
X281189D01*
Y336497D01*
X278788D01*
X287749Y366393D02*
Y370393D01*
X291749D01*
Y366393D01*
X287749D01*
X288549Y367193D02*
Y369593D01*
X290949D01*
Y367193D01*
X288549D01*
X290790Y412249D02*
X292790Y414249D01*
X294790Y412249D01*
X292790Y410249D01*
X290790Y412249D01*
X553892Y389412D02*
Y393412D01*
X557892D01*
Y389412D01*
X553892D01*
X554692Y390212D02*
Y392612D01*
X557092D01*
Y390212D01*
X554692D01*
X442911Y336206D02*
Y340206D01*
X446911D01*
Y336206D01*
X442911D01*
X443711Y337006D02*
Y339406D01*
X446111D01*
Y337006D01*
X443711D01*
X497640Y303101D02*
Y307101D01*
X501640D01*
Y303101D01*
X497640D01*
X498440Y303901D02*
Y306301D01*
X500840D01*
Y303901D01*
X498440D01*
X211371Y358008D02*
Y362008D01*
X215371D01*
Y358008D01*
X211371D01*
X212171Y358808D02*
Y361208D01*
X214571D01*
Y358808D01*
X212171D01*
X495720Y480204D02*
X497720Y482204D01*
X499720Y480204D01*
X497720Y478204D01*
X495720Y480204D01*
X383973Y481078D02*
X385973Y483078D01*
X387973Y481078D01*
X385973Y479078D01*
X383973Y481078D01*
X440148Y480607D02*
X442148Y482607D01*
X444148Y480607D01*
X442148Y478607D01*
X440148Y480607D01*
X551592Y481152D02*
X553592Y483152D01*
X555592Y481152D01*
X553592Y479152D01*
X551592Y481152D01*
X334597Y214341D02*
X336597Y216341D01*
X338597Y214341D01*
X336597Y212341D01*
X334597Y214341D01*
X390089Y214836D02*
X392089Y216836D01*
X394089Y214836D01*
X392089Y212836D01*
X390089Y214836D01*
X502302Y214817D02*
X504302Y216817D01*
X506302Y214817D01*
X504302Y212817D01*
X502302Y214817D01*
X446611Y215043D02*
X448611Y217043D01*
X450611Y215043D01*
X448611Y213043D01*
X446611Y215043D01*
X551456Y473047D02*
X553456Y475047D01*
X555456Y473047D01*
X553456Y471047D01*
X551456Y473047D01*
X495678Y473105D02*
X497678Y475105D01*
X499678Y473105D01*
X497678Y471105D01*
X495678Y473105D01*
X439914Y473144D02*
X441914Y475144D01*
X443914Y473144D01*
X441914Y471144D01*
X439914Y473144D01*
X384001Y473177D02*
X386001Y475177D01*
X388001Y473177D01*
X386001Y471177D01*
X384001Y473177D01*
X334764Y221852D02*
X336764Y223852D01*
X338764Y221852D01*
X336764Y219852D01*
X334764Y221852D01*
X390304Y221931D02*
X392304Y223931D01*
X394304Y221931D01*
X392304Y219931D01*
X390304Y221931D01*
X446883Y221937D02*
X448883Y223937D01*
X450883Y221937D01*
X448883Y219937D01*
X446883Y221937D01*
X502466Y221974D02*
X504466Y223974D01*
X506466Y221974D01*
X504466Y219974D01*
X502466Y221974D01*
X512105Y333478D02*
Y337478D01*
X516105D01*
Y333478D01*
X512105D01*
X512905Y334278D02*
Y336678D01*
X515305D01*
Y334278D01*
X512905D01*
X551611Y323917D02*
Y327917D01*
X555611D01*
Y323917D01*
X551611D01*
X552411Y324717D02*
Y327117D01*
X554811D01*
Y324717D01*
X552411D01*
X506854Y274116D02*
Y278116D01*
X510854D01*
Y274116D01*
X506854D01*
X507654Y274916D02*
Y277316D01*
X510054D01*
Y274916D01*
X507654D01*
X512971Y302918D02*
Y306918D01*
X516971D01*
Y302918D01*
X512971D01*
X513771Y303718D02*
Y306118D01*
X516171D01*
Y303718D01*
X513771D01*
X525952Y335241D02*
Y339241D01*
X529952D01*
Y335241D01*
X525952D01*
X526752Y336041D02*
Y338441D01*
X529152D01*
Y336041D01*
X526752D01*
X456105Y333478D02*
Y337478D01*
X460105D01*
Y333478D01*
X456105D01*
X456905Y334278D02*
Y336678D01*
X459305D01*
Y334278D01*
X456905D01*
X495611Y323917D02*
Y327917D01*
X499611D01*
Y323917D01*
X495611D01*
X496411Y324717D02*
Y327117D01*
X498811D01*
Y324717D01*
X496411D01*
X450854Y274116D02*
Y278116D01*
X454854D01*
Y274116D01*
X450854D01*
X451654Y274916D02*
Y277316D01*
X454054D01*
Y274916D01*
X451654D01*
X456971Y302918D02*
Y306918D01*
X460971D01*
Y302918D01*
X456971D01*
X457771Y303718D02*
Y306118D01*
X460171D01*
Y303718D01*
X457771D01*
X469952Y335241D02*
Y339241D01*
X473952D01*
Y335241D01*
X469952D01*
X470752Y336041D02*
Y338441D01*
X473152D01*
Y336041D01*
X470752D01*
X400105Y333478D02*
Y337478D01*
X404105D01*
Y333478D01*
X400105D01*
X400905Y334278D02*
Y336678D01*
X403305D01*
Y334278D01*
X400905D01*
X439611Y323917D02*
Y327917D01*
X443611D01*
Y323917D01*
X439611D01*
X440411Y324717D02*
Y327117D01*
X442811D01*
Y324717D01*
X440411D01*
X394854Y274116D02*
Y278116D01*
X398854D01*
Y274116D01*
X394854D01*
X395654Y274916D02*
Y277316D01*
X398054D01*
Y274916D01*
X395654D01*
X400971Y302918D02*
Y306918D01*
X404971D01*
Y302918D01*
X400971D01*
X401771Y303718D02*
Y306118D01*
X404171D01*
Y303718D01*
X401771D01*
X413952Y335241D02*
Y339241D01*
X417952D01*
Y335241D01*
X413952D01*
X414752Y336041D02*
Y338441D01*
X417152D01*
Y336041D01*
X414752D01*
X542219Y357558D02*
Y361558D01*
X546219D01*
Y357558D01*
X542219D01*
X543019Y358358D02*
Y360758D01*
X545420D01*
Y358358D01*
X543019D01*
X502714Y367119D02*
Y371119D01*
X506714D01*
Y367119D01*
X502714D01*
X503514Y367919D02*
Y370319D01*
X505914D01*
Y367919D01*
X503514D01*
X547471Y416920D02*
Y420920D01*
X551471D01*
Y416920D01*
X547471D01*
X548271Y417720D02*
Y420120D01*
X550671D01*
Y417720D01*
X548271D01*
X528373Y355795D02*
Y359795D01*
X532373D01*
Y355795D01*
X528373D01*
X529173Y356595D02*
Y358995D01*
X531573D01*
Y356595D01*
X529173D01*
X541354Y388118D02*
Y392118D01*
X545354D01*
Y388118D01*
X541354D01*
X542154Y388918D02*
Y391318D01*
X544554D01*
Y388918D01*
X542154D01*
X486220Y357558D02*
Y361558D01*
X490219D01*
Y357558D01*
X486220D01*
X487019Y358358D02*
Y360758D01*
X489420D01*
Y358358D01*
X487019D01*
X446714Y367119D02*
Y371119D01*
X450714D01*
Y367119D01*
X446714D01*
X447514Y367919D02*
Y370319D01*
X449914D01*
Y367919D01*
X447514D01*
X491471Y416920D02*
Y420920D01*
X495471D01*
Y416920D01*
X491471D01*
X492271Y417720D02*
Y420120D01*
X494671D01*
Y417720D01*
X492271D01*
X472373Y355795D02*
Y359795D01*
X476373D01*
Y355795D01*
X472373D01*
X473173Y356595D02*
Y358995D01*
X475573D01*
Y356595D01*
X473173D01*
X485354Y388118D02*
Y392118D01*
X489354D01*
Y388118D01*
X485354D01*
X486154Y388918D02*
Y391318D01*
X488554D01*
Y388918D01*
X486154D01*
X430220Y357558D02*
Y361558D01*
X434220D01*
Y357558D01*
X430220D01*
X431019Y358358D02*
Y360758D01*
X433420D01*
Y358358D01*
X431019D01*
X390714Y367119D02*
Y371119D01*
X394714D01*
Y367119D01*
X390714D01*
X391514Y367919D02*
Y370319D01*
X393914D01*
Y367919D01*
X391514D01*
X435471Y416920D02*
Y420920D01*
X439471D01*
Y416920D01*
X435471D01*
X436271Y417720D02*
Y420120D01*
X438671D01*
Y417720D01*
X436271D01*
X416373Y355795D02*
Y359795D01*
X420373D01*
Y355795D01*
X416373D01*
X417173Y356595D02*
Y358995D01*
X419573D01*
Y356595D01*
X417173D01*
X429354Y388118D02*
Y392118D01*
X433354D01*
Y388118D01*
X429354D01*
X430154Y388918D02*
Y391318D01*
X432554D01*
Y388918D01*
X430154D01*
X299226Y379104D02*
Y383104D01*
X303226D01*
Y379104D01*
X299226D01*
X300026Y379904D02*
Y382304D01*
X302426D01*
Y379904D01*
X300026D01*
X321560Y412234D02*
X323560Y414234D01*
X325560Y412234D01*
X323560Y410234D01*
X321560Y412234D01*
X327979Y269678D02*
X329979Y271678D01*
X331979Y269678D01*
X329979Y267678D01*
X327979Y269678D01*
X331750Y386323D02*
X333750Y388323D01*
X335750Y386323D01*
X333750Y384323D01*
X331750Y386323D01*
X282619Y346366D02*
Y350366D01*
X286619D01*
Y346366D01*
X282619D01*
X283419Y347166D02*
Y349566D01*
X285819D01*
Y347166D01*
X283419D01*
X279562Y315917D02*
Y319917D01*
X283562D01*
Y315917D01*
X279562D01*
X280363Y316717D02*
Y319117D01*
X282763D01*
Y316717D01*
X280363D01*
X273148Y295596D02*
Y299596D01*
X277148D01*
Y295596D01*
X273148D01*
X273948Y296396D02*
Y298796D01*
X276348D01*
Y296396D01*
X273948D01*
X315500Y338822D02*
Y342822D01*
X319500D01*
Y338822D01*
X315500D01*
X316300Y339622D02*
Y342022D01*
X318700D01*
Y339622D01*
X316300D01*
X305108Y338865D02*
Y342865D01*
X309108D01*
Y338865D01*
X305108D01*
X305908Y339666D02*
Y342066D01*
X308308D01*
Y339666D01*
X305908D01*
X338854Y274116D02*
Y278116D01*
X342854D01*
Y274116D01*
X338854D01*
X339654Y274916D02*
Y277316D01*
X342054D01*
Y274916D01*
X339654D01*
X344971Y302918D02*
Y306918D01*
X348971D01*
Y302918D01*
X344971D01*
X345771Y303718D02*
Y306118D01*
X348171D01*
Y303718D01*
X345771D01*
X344105Y333478D02*
Y337478D01*
X348105D01*
Y333478D01*
X344105D01*
X344905Y334278D02*
Y336678D01*
X347305D01*
Y334278D01*
X344905D01*
X357952Y335241D02*
Y339241D01*
X361952D01*
Y335241D01*
X357952D01*
X358752Y336041D02*
Y338441D01*
X361152D01*
Y336041D01*
X358752D01*
X383611Y323917D02*
Y327917D01*
X387611D01*
Y323917D01*
X383611D01*
X384411Y324717D02*
Y327117D01*
X386811D01*
Y324717D01*
X384411D01*
X374219Y357558D02*
Y361558D01*
X378220D01*
Y357558D01*
X374219D01*
X375020Y358358D02*
Y360758D01*
X377419D01*
Y358358D01*
X375020D01*
X334714Y367119D02*
Y371119D01*
X338714D01*
Y367119D01*
X334714D01*
X335514Y367919D02*
Y370319D01*
X337914D01*
Y367919D01*
X335514D01*
X379471Y416920D02*
Y420920D01*
X383471D01*
Y416920D01*
X379471D01*
X380271Y417720D02*
Y420120D01*
X382671D01*
Y417720D01*
X380271D01*
X360373Y355795D02*
Y359795D01*
X364373D01*
Y355795D01*
X360373D01*
X361173Y356595D02*
Y358995D01*
X363573D01*
Y356595D01*
X361173D01*
X373354Y388118D02*
Y392118D01*
X377354D01*
Y388118D01*
X373354D01*
X374154Y388918D02*
Y391318D01*
X376554D01*
Y388918D01*
X374154D01*
X221993Y373035D02*
X223993Y375034D01*
X225993Y373035D01*
X223993Y371035D01*
X221993Y373035D01*
X240674Y244200D02*
Y248200D01*
X244674D01*
Y244200D01*
X240674D01*
X241474Y245000D02*
Y247400D01*
X243874D01*
Y245000D01*
X241474D01*
X217632Y333704D02*
Y337704D01*
X221632D01*
Y333704D01*
X217632D01*
X218432Y334504D02*
Y336904D01*
X220832D01*
Y334504D01*
X218432D01*
X223476Y333612D02*
Y337613D01*
X227476D01*
Y333612D01*
X223476D01*
X224276Y334413D02*
Y336812D01*
X226676D01*
Y334413D01*
X224276D01*
X251534Y332939D02*
Y336939D01*
X255534D01*
Y332939D01*
X251534D01*
X252334Y333739D02*
Y336139D01*
X254734D01*
Y333739D01*
X252334D01*
X294521Y294935D02*
Y298935D01*
X298521D01*
Y294935D01*
X294521D01*
X295321Y295735D02*
Y298135D01*
X297721D01*
Y295735D01*
X295321D01*
X294429Y289357D02*
Y293357D01*
X298429D01*
Y289357D01*
X294429D01*
X295229Y290157D02*
Y292557D01*
X297629D01*
Y290157D01*
X295229D01*
X295104Y266162D02*
Y270162D01*
X299104D01*
Y266162D01*
X295104D01*
X295904Y266962D02*
Y269362D01*
X298304D01*
Y266962D01*
X295904D01*
X295128Y281958D02*
Y285958D01*
X299128D01*
Y281958D01*
X295128D01*
X295928Y282758D02*
Y285158D01*
X298327D01*
Y282758D01*
X295928D01*
X257589Y297274D02*
Y301274D01*
X261589D01*
Y297274D01*
X257589D01*
X258388Y298074D02*
Y300474D01*
X260788D01*
Y298074D01*
X258388D01*
X241330Y333028D02*
Y337028D01*
X245330D01*
Y333028D01*
X241330D01*
X242130Y333828D02*
Y336228D01*
X244530D01*
Y333828D01*
X242130D01*
X247098Y329577D02*
Y333577D01*
X251098D01*
Y329577D01*
X247098D01*
X247898Y330377D02*
Y332777D01*
X250298D01*
Y330377D01*
X247898D01*
X229643Y276214D02*
Y280214D01*
X233643D01*
Y276214D01*
X229643D01*
X230443Y277014D02*
Y279414D01*
X232843D01*
Y277014D01*
X230443D01*
X235300Y279982D02*
Y283982D01*
X239300D01*
Y279982D01*
X235300D01*
X236100Y280782D02*
Y283182D01*
X238500D01*
Y280782D01*
X236100D01*
X289309Y249676D02*
Y253676D01*
X293309D01*
Y249676D01*
X289309D01*
X290109Y250476D02*
Y252876D01*
X292509D01*
Y250476D01*
X290109D01*
X306197Y249400D02*
Y253400D01*
X310197D01*
Y249400D01*
X306197D01*
X306997Y250200D02*
Y252600D01*
X309397D01*
Y250200D01*
X306997D01*
X211701Y278154D02*
Y282154D01*
X215701D01*
Y278154D01*
X211701D01*
X212501Y278954D02*
Y281354D01*
X214901D01*
Y278954D01*
X212501D01*
X211661Y248756D02*
Y252755D01*
X215661D01*
Y248756D01*
X211661D01*
X212460Y249555D02*
Y251956D01*
X214861D01*
Y249555D01*
X212460D01*
X278221Y242679D02*
Y246679D01*
X282221D01*
Y242679D01*
X278221D01*
X279021Y243479D02*
Y245879D01*
X281420D01*
Y243479D01*
X279021D01*
X251975Y244407D02*
Y248407D01*
X255975D01*
Y244407D01*
X251975D01*
X252775Y245206D02*
Y247606D01*
X255175D01*
Y245206D01*
X252775D01*
D106*
X301000Y474500D02*
G03*
X301000Y474500I-2000J0D01*
G01*
X310842D02*
G03*
X310842Y474500I-2000J0D01*
G01*
M02*
