G04*
G04 #@! TF.GenerationSoftware,Altium Limited,Altium Designer,24.0.1 (36)*
G04*
G04 Layer_Color=128*
%FSLAX25Y25*%
%MOIN*%
G70*
G04*
G04 #@! TF.SameCoordinates,A2E01C4A-C41F-4235-85C4-DC12FCC8AE1E*
G04*
G04*
G04 #@! TF.FilePolarity,Positive*
G04*
G01*
G75*
%ADD10C,0.00500*%
D10*
X299095Y408000D02*
X310906D01*
X305000Y402095D02*
Y413905D01*
X568094Y214000D02*
X579906D01*
X574000Y208095D02*
Y219905D01*
X568094Y480000D02*
X579906D01*
X574000Y474094D02*
Y485906D01*
X296933Y474500D02*
X301067D01*
X299000Y472433D02*
Y476567D01*
X306776Y474500D02*
X310910D01*
X308842Y472433D02*
Y476567D01*
X227248Y312996D02*
X228429D01*
X227839Y312405D02*
Y313587D01*
X229413Y315161D02*
X230594D01*
X230004Y314571D02*
Y315752D01*
X233744Y315161D02*
X234925D01*
X234335Y314571D02*
Y315752D01*
X227248Y308665D02*
X228429D01*
X227839Y308075D02*
Y309256D01*
X231579Y312996D02*
X232760D01*
X232169Y312405D02*
Y313587D01*
X229413Y310831D02*
X230594D01*
X230004Y310240D02*
Y311421D01*
X229413Y306500D02*
X230594D01*
X230004Y305909D02*
Y307090D01*
X231579Y308665D02*
X232760D01*
X232169Y308075D02*
Y309256D01*
X235910Y312996D02*
X237090D01*
X236500Y312405D02*
Y313587D01*
X235910Y308665D02*
X237090D01*
X236500Y308075D02*
Y309256D01*
X233744Y310831D02*
X234925D01*
X234335Y310240D02*
Y311421D01*
X233744Y306500D02*
X234925D01*
X234335Y305909D02*
Y307090D01*
X272256Y451000D02*
X275130D01*
X273693Y449563D02*
Y452437D01*
X272256Y461000D02*
X275130D01*
X273693Y459563D02*
Y462437D01*
X272256Y471000D02*
X275130D01*
X273693Y469563D02*
Y472437D01*
X302425Y433937D02*
X305575D01*
X304000Y432362D02*
Y435512D01*
X302425Y426063D02*
X305575D01*
X304000Y424488D02*
Y427638D01*
X569162Y267514D02*
X572311D01*
X570737Y265940D02*
Y269089D01*
X569162Y275389D02*
X572311D01*
X570737Y273814D02*
Y276963D01*
X569162Y283262D02*
X572311D01*
X570737Y281688D02*
Y284837D01*
X569162Y291137D02*
X572311D01*
X570737Y289562D02*
Y292711D01*
X569162Y299010D02*
X572311D01*
X570737Y297436D02*
Y300585D01*
X569162Y306885D02*
X572311D01*
X570737Y305310D02*
Y308459D01*
X569162Y314758D02*
X572311D01*
X570737Y313184D02*
Y316333D01*
X569162Y322633D02*
X572311D01*
X570737Y321058D02*
Y324207D01*
X569162Y330507D02*
X572311D01*
X570737Y328932D02*
Y332081D01*
X569162Y338381D02*
X572311D01*
X570737Y336806D02*
Y339955D01*
X569452Y357043D02*
X572601D01*
X571026Y355468D02*
Y358618D01*
X569452Y364917D02*
X572601D01*
X571026Y363342D02*
Y366492D01*
X569452Y372791D02*
X572601D01*
X571026Y371216D02*
Y374366D01*
X569452Y380665D02*
X572601D01*
X571026Y379090D02*
Y382240D01*
X569452Y388539D02*
X572601D01*
X571026Y386964D02*
Y390114D01*
X569452Y396413D02*
X572601D01*
X571026Y394838D02*
Y397988D01*
X569452Y404287D02*
X572601D01*
X571026Y402712D02*
Y405862D01*
X569452Y412161D02*
X572601D01*
X571026Y410586D02*
Y413736D01*
X569452Y420035D02*
X572601D01*
X571026Y418460D02*
Y421610D01*
X569452Y427909D02*
X572601D01*
X571026Y426334D02*
Y429484D01*
X250866Y218000D02*
X259134D01*
X255000Y213866D02*
Y222134D01*
X242008Y218000D02*
X247520D01*
X244764Y215244D02*
Y220756D01*
X232008Y218000D02*
X237520D01*
X234764Y215244D02*
Y220756D01*
X247008Y228000D02*
X252520D01*
X249764Y225244D02*
Y230756D01*
X237008Y228000D02*
X242520D01*
X239764Y225244D02*
Y230756D01*
X214606Y228000D02*
X224449D01*
X219528Y223079D02*
Y232921D01*
X222008Y218000D02*
X227520D01*
X224764Y215244D02*
Y220756D01*
X227008Y228000D02*
X232520D01*
X229764Y225244D02*
Y230756D01*
X207752Y365459D02*
X210552D01*
X209152Y364059D02*
Y366859D01*
X269088Y298852D02*
X270688D01*
X269888Y298052D02*
Y299652D01*
X263713Y298711D02*
X265313D01*
X264513Y297911D02*
Y299511D01*
X279188Y337697D02*
X280788D01*
X279989Y336897D02*
Y338497D01*
X288949Y368393D02*
X290549D01*
X289749Y367593D02*
Y369193D01*
X291390Y412249D02*
X294190D01*
X292790Y410849D02*
Y413649D01*
X555091Y391412D02*
X556692D01*
X555892Y390612D02*
Y392212D01*
X444111Y338206D02*
X445711D01*
X444911Y337406D02*
Y339006D01*
X498840Y305101D02*
X500440D01*
X499640Y304301D02*
Y305901D01*
X212571Y360008D02*
X214171D01*
X213371Y359208D02*
Y360808D01*
X496320Y480204D02*
X499120D01*
X497720Y478804D02*
Y481604D01*
X384573Y481078D02*
X387373D01*
X385973Y479678D02*
Y482478D01*
X440748Y480607D02*
X443548D01*
X442148Y479207D02*
Y482007D01*
X552192Y481152D02*
X554992D01*
X553592Y479752D02*
Y482552D01*
X335197Y214341D02*
X337997D01*
X336597Y212941D02*
Y215741D01*
X390689Y214836D02*
X393489D01*
X392089Y213436D02*
Y216236D01*
X502902Y214817D02*
X505702D01*
X504302Y213417D02*
Y216217D01*
X447211Y215043D02*
X450011D01*
X448611Y213644D02*
Y216443D01*
X552056Y473047D02*
X554856D01*
X553456Y471647D02*
Y474447D01*
X496278Y473105D02*
X499078D01*
X497678Y471705D02*
Y474505D01*
X440514Y473144D02*
X443314D01*
X441914Y471744D02*
Y474544D01*
X384601Y473177D02*
X387401D01*
X386001Y471777D02*
Y474577D01*
X335364Y221852D02*
X338164D01*
X336764Y220452D02*
Y223252D01*
X390904Y221931D02*
X393704D01*
X392304Y220531D02*
Y223331D01*
X447483Y221937D02*
X450283D01*
X448883Y220537D02*
Y223337D01*
X503066Y221974D02*
X505866D01*
X504466Y220574D02*
Y223374D01*
X513305Y335478D02*
X514905D01*
X514105Y334678D02*
Y336278D01*
X552811Y325917D02*
X554411D01*
X553611Y325117D02*
Y326717D01*
X508054Y276116D02*
X509654D01*
X508854Y275316D02*
Y276916D01*
X514171Y304918D02*
X515771D01*
X514971Y304118D02*
Y305718D01*
X527152Y337241D02*
X528752D01*
X527952Y336441D02*
Y338041D01*
X457305Y335478D02*
X458905D01*
X458105Y334678D02*
Y336278D01*
X496811Y325917D02*
X498411D01*
X497611Y325117D02*
Y326717D01*
X452054Y276116D02*
X453654D01*
X452854Y275316D02*
Y276916D01*
X458171Y304918D02*
X459771D01*
X458971Y304118D02*
Y305718D01*
X471152Y337241D02*
X472752D01*
X471952Y336441D02*
Y338041D01*
X401305Y335478D02*
X402905D01*
X402105Y334678D02*
Y336278D01*
X440811Y325917D02*
X442411D01*
X441611Y325117D02*
Y326717D01*
X396054Y276116D02*
X397654D01*
X396854Y275316D02*
Y276916D01*
X402171Y304918D02*
X403771D01*
X402971Y304118D02*
Y305718D01*
X415152Y337241D02*
X416752D01*
X415952Y336441D02*
Y338041D01*
X543420Y359558D02*
X545019D01*
X544219Y358758D02*
Y360358D01*
X503914Y369119D02*
X505514D01*
X504714Y368319D02*
Y369919D01*
X548671Y418920D02*
X550271D01*
X549471Y418120D02*
Y419720D01*
X529573Y357795D02*
X531173D01*
X530373Y356995D02*
Y358595D01*
X542554Y390118D02*
X544154D01*
X543354Y389318D02*
Y390918D01*
X487420Y359558D02*
X489019D01*
X488219Y358758D02*
Y360358D01*
X447914Y369119D02*
X449514D01*
X448714Y368319D02*
Y369919D01*
X492671Y418920D02*
X494271D01*
X493471Y418120D02*
Y419720D01*
X473573Y357795D02*
X475173D01*
X474373Y356995D02*
Y358595D01*
X486554Y390118D02*
X488154D01*
X487354Y389318D02*
Y390918D01*
X431420Y359558D02*
X433019D01*
X432220Y358758D02*
Y360358D01*
X391914Y369119D02*
X393514D01*
X392714Y368319D02*
Y369919D01*
X436671Y418920D02*
X438271D01*
X437471Y418120D02*
Y419720D01*
X417573Y357795D02*
X419173D01*
X418373Y356995D02*
Y358595D01*
X430554Y390118D02*
X432154D01*
X431354Y389318D02*
Y390918D01*
X300426Y381104D02*
X302026D01*
X301226Y380304D02*
Y381904D01*
X322160Y412234D02*
X324960D01*
X323560Y410834D02*
Y413634D01*
X328579Y269678D02*
X331379D01*
X329979Y268278D02*
Y271078D01*
X332350Y386323D02*
X335150D01*
X333750Y384923D02*
Y387723D01*
X283819Y348366D02*
X285419D01*
X284619Y347566D02*
Y349166D01*
X280763Y317917D02*
X282363D01*
X281562Y317117D02*
Y318717D01*
X274348Y297596D02*
X275948D01*
X275148Y296796D02*
Y298396D01*
X316700Y340822D02*
X318300D01*
X317500Y340022D02*
Y341622D01*
X306308Y340865D02*
X307908D01*
X307108Y340066D02*
Y341666D01*
X340054Y276116D02*
X341654D01*
X340854Y275316D02*
Y276916D01*
X346171Y304918D02*
X347771D01*
X346971Y304118D02*
Y305718D01*
X345305Y335478D02*
X346905D01*
X346105Y334678D02*
Y336278D01*
X359152Y337241D02*
X360752D01*
X359952Y336441D02*
Y338041D01*
X384811Y325917D02*
X386411D01*
X385611Y325117D02*
Y326717D01*
X375419Y359558D02*
X377020D01*
X376220Y358758D02*
Y360358D01*
X335914Y369119D02*
X337514D01*
X336714Y368319D02*
Y369919D01*
X380671Y418920D02*
X382271D01*
X381471Y418120D02*
Y419720D01*
X361573Y357795D02*
X363173D01*
X362373Y356995D02*
Y358595D01*
X374554Y390118D02*
X376154D01*
X375354Y389318D02*
Y390918D01*
X222593Y373035D02*
X225393D01*
X223993Y371635D02*
Y374434D01*
X241874Y246200D02*
X243474D01*
X242674Y245400D02*
Y247000D01*
X218832Y335704D02*
X220432D01*
X219632Y334904D02*
Y336504D01*
X224676Y335613D02*
X226276D01*
X225476Y334812D02*
Y336413D01*
X252734Y334939D02*
X254334D01*
X253534Y334139D02*
Y335739D01*
X295721Y296935D02*
X297321D01*
X296521Y296135D02*
Y297735D01*
X295629Y291357D02*
X297229D01*
X296429Y290557D02*
Y292157D01*
X296304Y268162D02*
X297904D01*
X297104Y267362D02*
Y268962D01*
X296327Y283958D02*
X297927D01*
X297128Y283158D02*
Y284758D01*
X258788Y299274D02*
X260388D01*
X259589Y298474D02*
Y300074D01*
X242530Y335028D02*
X244130D01*
X243330Y334228D02*
Y335828D01*
X248298Y331577D02*
X249898D01*
X249098Y330777D02*
Y332377D01*
X230843Y278214D02*
X232443D01*
X231643Y277414D02*
Y279014D01*
X236500Y281982D02*
X238100D01*
X237300Y281182D02*
Y282782D01*
X290509Y251676D02*
X292109D01*
X291309Y250876D02*
Y252476D01*
X307397Y251400D02*
X308997D01*
X308197Y250600D02*
Y252200D01*
X212901Y280154D02*
X214501D01*
X213701Y279354D02*
Y280954D01*
X212860Y250756D02*
X214460D01*
X213661Y249956D02*
Y251555D01*
X279420Y244679D02*
X281020D01*
X280221Y243879D02*
Y245479D01*
X253175Y246407D02*
X254775D01*
X253975Y245606D02*
Y247206D01*
M02*
