M48
;Layer_Color=9474304
;FILE_FORMAT=2:4
INCH,TZ
;TYPE=PLATED
T01F00S00C0.0118
T02F00S00C0.0160
T03F00S00C0.0280
T04F00S00C0.0287
T05F00S00C0.0315
T06F00S00C0.0413
T07F00S00C0.0551
T08F00S00C0.1181
;TYPE=NON_PLATED
T09F00S00C0.0827
T10F00S00C0.0984
%
T01
X22784Y30867
X23000Y30650
Y31083
X23433
X23217Y30867
X23650
X23433Y30650
X23217Y31300
X23650
X23433Y31516
X23000
X22784Y31300
T02
X50885Y27612
X51497Y30492
X49964Y30510
X45897Y30492
X45285Y27612
X39685
X40297Y30492
X34697
X34085Y27612
X29713Y28396
X29643Y29136
X29652Y29694
X27515Y29760
X26989Y29885
X26451Y29871
X25959Y29927
X23730Y28198
X23164Y27821
X21370Y28015
X21366Y25076
X24267Y24620
X25398Y24641
X28022Y24468
X29131Y25168
X30820Y25140
X29710Y26816
X28156Y31792
X27999Y33770
X28462Y34837
X28975Y36839
X30123Y38110
X30711Y34087
X25353Y33494
X24910Y33158
X24333Y33503
X22548Y33561
X21963Y33570
X21337Y36001
X31750Y34082
X34611Y33548
X35995Y33724
X36237Y35779
X37622Y35956
X39271Y36912
X41837Y35779
X43222Y35956
X44871Y36912
X44491Y33821
X44161Y32592
X45811Y33548
X41595Y33724
X40211Y33548
X38561Y32592
X37535Y39012
X38147Y41892
X43747
X43135Y39012
X33671Y36912
X47437Y35779
X48822Y35956
X50471Y36912
X53037Y35779
X54422Y35956
X54335Y39012
X55589Y39141
X54947Y41892
X49347
X48735Y39012
X47195Y33724
X49761Y32592
X51411Y33548
X52795Y33724
X55361Y32592
T03
X50430Y21482
X50447Y22197
X44888Y22194
X44861Y21504
X39209Y21484
X39230Y22193
X33676Y22185
X33660Y21434
X32998Y26968
X29279Y41225
X22399Y37303
X20915Y36546
X33375Y38632
X32356Y41223
X49768Y47311
X49772Y48020
X55359Y48115
X55346Y47305
X44191Y47314
X44215Y48061
X38597Y48108
X38600Y47318
T04
X27369Y45100
Y46100
Y47100
T05
X57074Y26751
Y27539
Y28326
Y29114
Y29901
Y30688
X30400Y42606
Y43394
X57103Y42791
Y42004
Y41216
Y40429
Y39641
Y38854
Y38067
Y37279
Y36492
Y35704
X57074Y33838
Y33051
Y32263
Y31476
T06
X29900Y47450
X30884
T07
X22476Y21800
X23476
X24476
X24976Y22800
X23976
X22976
T08
X57400Y21400
X30500Y40800
X57400Y48000
T09
X25500Y21800
T10
X21953Y22800
M30
