G04*
G04 #@! TF.GenerationSoftware,Altium Limited,Altium Designer,24.0.1 (36)*
G04*
G04 Layer_Physical_Order=1*
G04 Layer_Color=255*
%FSLAX25Y25*%
%MOIN*%
G70*
G04*
G04 #@! TF.SameCoordinates,A2E01C4A-C41F-4235-85C4-DC12FCC8AE1E*
G04*
G04*
G04 #@! TF.FilePolarity,Positive*
G04*
G01*
G75*
%ADD15C,0.01000*%
G04:AMPARAMS|DCode=23|XSize=77.56mil|YSize=23.62mil|CornerRadius=2.95mil|HoleSize=0mil|Usage=FLASHONLY|Rotation=90.000|XOffset=0mil|YOffset=0mil|HoleType=Round|Shape=RoundedRectangle|*
%AMROUNDEDRECTD23*
21,1,0.07756,0.01772,0,0,90.0*
21,1,0.07165,0.02362,0,0,90.0*
1,1,0.00591,0.00886,0.03583*
1,1,0.00591,0.00886,-0.03583*
1,1,0.00591,-0.00886,-0.03583*
1,1,0.00591,-0.00886,0.03583*
%
%ADD23ROUNDEDRECTD23*%
%ADD24R,0.04528X0.04528*%
%ADD25R,0.03764X0.06338*%
%ADD26R,0.04528X0.04528*%
%ADD27R,0.21260X0.11417*%
%ADD28R,0.04567X0.05787*%
%ADD29R,0.04353X0.06528*%
%ADD30R,0.05787X0.04567*%
G04:AMPARAMS|DCode=31|XSize=57.87mil|YSize=11.02mil|CornerRadius=1.38mil|HoleSize=0mil|Usage=FLASHONLY|Rotation=0.000|XOffset=0mil|YOffset=0mil|HoleType=Round|Shape=RoundedRectangle|*
%AMROUNDEDRECTD31*
21,1,0.05787,0.00827,0,0,0.0*
21,1,0.05512,0.01102,0,0,0.0*
1,1,0.00276,0.02756,-0.00413*
1,1,0.00276,-0.02756,-0.00413*
1,1,0.00276,-0.02756,0.00413*
1,1,0.00276,0.02756,0.00413*
%
%ADD31ROUNDEDRECTD31*%
%ADD32R,0.03543X0.05906*%
%ADD33R,0.02756X0.02756*%
%ADD34R,0.04685X0.05787*%
%ADD35R,0.04252X0.05591*%
%ADD36R,0.08465X0.11024*%
%ADD37R,0.05591X0.04252*%
%ADD38R,0.06634X0.02134*%
%ADD39R,0.05787X0.04685*%
%ADD40R,0.07480X0.04331*%
%ADD41R,0.05118X0.04331*%
%ADD42R,0.02559X0.04134*%
%ADD43R,0.05118X0.02362*%
%ADD48R,0.02598X0.01378*%
%ADD49R,0.04331X0.04921*%
%ADD50R,0.01693X0.01378*%
%ADD51R,0.04724X0.04724*%
%ADD78C,0.02000*%
%ADD79R,0.02756X0.02362*%
%ADD80C,0.04000*%
%ADD81C,0.01600*%
%ADD82C,0.01500*%
%ADD83C,0.06000*%
%ADD84R,0.06201X0.06201*%
%ADD85C,0.06201*%
%ADD86C,0.01575*%
%ADD87R,0.04449X0.04449*%
%ADD88C,0.04449*%
%ADD89C,0.05118*%
G04:AMPARAMS|DCode=90|XSize=51.18mil|YSize=51.18mil|CornerRadius=12.8mil|HoleSize=0mil|Usage=FLASHONLY|Rotation=270.000|XOffset=0mil|YOffset=0mil|HoleType=Round|Shape=RoundedRectangle|*
%AMROUNDEDRECTD90*
21,1,0.05118,0.02559,0,0,270.0*
21,1,0.02559,0.05118,0,0,270.0*
1,1,0.02559,-0.01280,-0.01280*
1,1,0.02559,-0.01280,0.01280*
1,1,0.02559,0.01280,0.01280*
1,1,0.02559,0.01280,-0.01280*
%
%ADD90ROUNDEDRECTD90*%
%ADD91C,0.05150*%
%ADD92R,0.05150X0.05150*%
%ADD93C,0.08268*%
%ADD94C,0.06890*%
%ADD95C,0.09843*%
%ADD96C,0.05000*%
%ADD97C,0.03200*%
D15*
X384278Y481078D02*
X385973D01*
X384404D02*
X385973D01*
X387693D01*
X441312Y480607D02*
X442148D01*
X441143D02*
X442148D01*
X441003D02*
X442148D01*
X443036D01*
X497720Y480204D02*
Y480401D01*
Y480204D02*
X498114D01*
X339672Y212653D02*
X339856D01*
X339672D02*
X340040D01*
X334791Y214850D02*
X337475D01*
X502731Y213957D02*
X505935D01*
X447834Y214576D02*
X449316D01*
X391242Y214836D02*
X391498D01*
X391972D01*
X391856D02*
X392089D01*
X392816D01*
X518299Y360308D02*
X518357Y360250D01*
X462299Y360308D02*
X462357Y360250D01*
X406299Y360308D02*
X406357Y360250D01*
X301640Y361024D02*
X303084Y362469D01*
X303028Y359863D02*
X303614Y360449D01*
X310981Y358531D02*
X311683Y359233D01*
X303614Y360449D02*
X306984D01*
X307035Y360500D01*
X323965D02*
X323988Y360477D01*
X303084Y362469D02*
X307035D01*
X311683Y359233D02*
Y369553D01*
X323965Y356563D02*
X324016Y356512D01*
X307035Y358531D02*
X310981D01*
X327352Y356512D02*
X327938Y355926D01*
X324016Y356512D02*
X327352D01*
X328956Y358531D02*
X329645Y357842D01*
X323965Y358531D02*
X328956D01*
X329915Y360477D02*
X331329Y359063D01*
X323988Y360477D02*
X329915D01*
X330316Y362469D02*
X332960Y359824D01*
X323965Y362469D02*
X330316D01*
X309362Y371874D02*
X311683Y369553D01*
X306500Y371874D02*
X309362D01*
X311658Y335338D02*
Y342643D01*
X303614Y343565D02*
X310736D01*
X311658Y342643D01*
X303028Y344151D02*
Y359863D01*
Y344151D02*
X303614Y343565D01*
X350357Y354170D02*
Y360250D01*
X350299Y360308D02*
X350357Y360250D01*
X335461Y352431D02*
X348617D01*
X350357Y354170D01*
X332960Y354931D02*
X335461Y352431D01*
X332960Y354931D02*
Y359824D01*
X331329Y354007D02*
Y359063D01*
X334705Y350631D02*
X402346D01*
X331329Y354007D02*
X334705Y350631D01*
X402346D02*
X406696Y354981D01*
Y360396D01*
X329645Y353263D02*
Y357842D01*
Y353263D02*
X333840Y349068D01*
X451562D01*
X327938Y352587D02*
X333055Y347470D01*
X327938Y352587D02*
Y355926D01*
X333055Y347470D02*
X506646D01*
X451562Y349068D02*
X463005Y360511D01*
X506646Y347470D02*
X519641Y360466D01*
X332109Y344203D02*
X481560D01*
X329960Y342054D02*
X332109Y344203D01*
X481560D02*
X484766Y340997D01*
X530411Y345836D02*
X541624Y334623D01*
X328344Y342791D02*
X331389Y345836D01*
X530411D01*
X426806Y342670D02*
X428025Y341451D01*
X331667Y341446D02*
X332891Y342670D01*
X426806D01*
X328344Y337054D02*
Y342791D01*
X333192Y340478D02*
X333777Y341064D01*
X371475D01*
X333192Y334062D02*
Y340478D01*
X372061Y334647D02*
Y340478D01*
X371475Y341064D02*
X372061Y340478D01*
X329960Y335250D02*
Y342054D01*
X484766Y334634D02*
Y340997D01*
X331667Y341443D02*
Y341446D01*
X331516Y334523D02*
Y341292D01*
X331667Y341443D01*
X329524Y332531D02*
X331516Y334523D01*
X428025Y334683D02*
Y341451D01*
X329693Y330563D02*
X333192Y334062D01*
X323965Y330563D02*
X329693D01*
X327758Y336469D02*
X328344Y337054D01*
X323965Y336469D02*
X327758D01*
X323965Y332531D02*
X329524D01*
X323965Y334500D02*
X329210D01*
X329960Y335250D01*
X265915Y329691D02*
Y333391D01*
X265992Y333468D01*
X265915Y329691D02*
X266944Y328662D01*
X282300D01*
X288138Y334500D01*
X307035D01*
X267273Y345994D02*
X278183D01*
X266521Y345242D02*
X267273Y345994D01*
X266521Y342645D02*
Y345242D01*
X265940Y342064D02*
X266521Y342645D01*
X278183Y345994D02*
X287708Y336469D01*
X302549D01*
Y336498D02*
X307006D01*
X307035Y336469D01*
X301640Y337407D02*
X302549Y336498D01*
X301640Y337407D02*
Y361024D01*
X307081Y334455D02*
X310774D01*
X307035Y334500D02*
X307081Y334455D01*
X310774D02*
X311658Y335338D01*
X307121Y322621D02*
X310598D01*
X307000Y322500D02*
X307121Y322621D01*
X310598D02*
X312112Y324135D01*
Y331301D01*
X307035Y332531D02*
X310881D01*
X312112Y331301D01*
D23*
X357365Y364635D02*
D03*
X362365D02*
D03*
X367365D02*
D03*
X372365D02*
D03*
Y384084D02*
D03*
X367365D02*
D03*
X362365D02*
D03*
X357365D02*
D03*
X525365Y364635D02*
D03*
X530365D02*
D03*
X535365D02*
D03*
X540365D02*
D03*
Y384084D02*
D03*
X535365D02*
D03*
X530365D02*
D03*
X525365D02*
D03*
X364960Y330400D02*
D03*
X359960D02*
D03*
X354960D02*
D03*
X349960D02*
D03*
Y310952D02*
D03*
X354960D02*
D03*
X359960D02*
D03*
X364960D02*
D03*
X413365Y384084D02*
D03*
X418365D02*
D03*
X423365D02*
D03*
X428365D02*
D03*
Y364635D02*
D03*
X423365D02*
D03*
X418365D02*
D03*
X413365D02*
D03*
X469365Y384084D02*
D03*
X474365D02*
D03*
X479365D02*
D03*
X484365D02*
D03*
Y364635D02*
D03*
X479365D02*
D03*
X474365D02*
D03*
X469365D02*
D03*
X532960Y310952D02*
D03*
X527960D02*
D03*
X522960D02*
D03*
X517960D02*
D03*
Y330400D02*
D03*
X522960D02*
D03*
X527960D02*
D03*
X532960D02*
D03*
X476960Y310952D02*
D03*
X471960D02*
D03*
X466960D02*
D03*
X461960D02*
D03*
Y330400D02*
D03*
X466960D02*
D03*
X471960D02*
D03*
X476960D02*
D03*
X420960Y310952D02*
D03*
X415960D02*
D03*
X410960D02*
D03*
X405960D02*
D03*
Y330400D02*
D03*
X410960D02*
D03*
X415960D02*
D03*
X420960D02*
D03*
D24*
X350299Y360308D02*
D03*
X341047D02*
D03*
X373240Y398179D02*
D03*
X382492D02*
D03*
X340261Y376984D02*
D03*
X349513D02*
D03*
X509047Y360308D02*
D03*
X518299D02*
D03*
X550492Y398179D02*
D03*
X541240D02*
D03*
X517513Y376984D02*
D03*
X508261D02*
D03*
X381278Y334728D02*
D03*
X372026D02*
D03*
X339833Y296857D02*
D03*
X349085D02*
D03*
X372812Y318052D02*
D03*
X382064D02*
D03*
X254500Y263500D02*
D03*
X245248D02*
D03*
X406299Y360308D02*
D03*
X397047D02*
D03*
X396261Y376984D02*
D03*
X405513D02*
D03*
X429240Y398179D02*
D03*
X438492D02*
D03*
X462299Y360308D02*
D03*
X453047D02*
D03*
X452261Y376984D02*
D03*
X461513D02*
D03*
X485240Y398179D02*
D03*
X494492D02*
D03*
X540026Y334728D02*
D03*
X549278D02*
D03*
X550064Y318052D02*
D03*
X540812D02*
D03*
X517085Y296857D02*
D03*
X507833D02*
D03*
X484026Y334728D02*
D03*
X493278D02*
D03*
X494064Y318052D02*
D03*
X484812D02*
D03*
X461085Y296857D02*
D03*
X451833D02*
D03*
X428026Y334728D02*
D03*
X437278D02*
D03*
X438064Y318052D02*
D03*
X428812D02*
D03*
X405085Y296857D02*
D03*
X395833D02*
D03*
X265992Y333468D02*
D03*
X275244D02*
D03*
X265940Y342064D02*
D03*
X275192D02*
D03*
X284626Y250500D02*
D03*
X275374D02*
D03*
D25*
X382915Y407968D02*
D03*
X372670D02*
D03*
X540670D02*
D03*
X550915D02*
D03*
X405655Y287068D02*
D03*
X395410D02*
D03*
X349655D02*
D03*
X339410D02*
D03*
X428670Y407968D02*
D03*
X438915D02*
D03*
X494915D02*
D03*
X484670D02*
D03*
X507410Y287068D02*
D03*
X517655D02*
D03*
X451410D02*
D03*
X461655D02*
D03*
D26*
X349393Y395528D02*
D03*
Y404780D02*
D03*
X380431Y376839D02*
D03*
Y386091D02*
D03*
X517393Y404780D02*
D03*
Y395528D02*
D03*
X548431Y386091D02*
D03*
Y376839D02*
D03*
X372932Y290256D02*
D03*
Y299508D02*
D03*
X341894Y308945D02*
D03*
Y318197D02*
D03*
X306500Y381126D02*
D03*
Y371874D02*
D03*
X307000Y313248D02*
D03*
Y322500D02*
D03*
X436431Y376839D02*
D03*
Y386091D02*
D03*
X405393Y395528D02*
D03*
Y404780D02*
D03*
X492431Y376839D02*
D03*
Y386091D02*
D03*
X461393Y395528D02*
D03*
Y404780D02*
D03*
X509894Y318197D02*
D03*
Y308945D02*
D03*
X540932Y299508D02*
D03*
Y290256D02*
D03*
X453894Y318197D02*
D03*
Y308945D02*
D03*
X484932Y299508D02*
D03*
Y290256D02*
D03*
X397894Y318197D02*
D03*
Y308945D02*
D03*
X428932Y299508D02*
D03*
Y290256D02*
D03*
X320500Y273248D02*
D03*
Y282500D02*
D03*
X277500Y283626D02*
D03*
Y274374D02*
D03*
X269935Y274526D02*
D03*
Y283778D02*
D03*
X264500Y386126D02*
D03*
Y376874D02*
D03*
X297000Y248626D02*
D03*
Y239374D02*
D03*
X314000Y248126D02*
D03*
Y238874D02*
D03*
X209000Y253374D02*
D03*
Y262626D02*
D03*
D27*
X361849Y421511D02*
D03*
Y459699D02*
D03*
X529849Y421511D02*
D03*
Y459699D02*
D03*
X360476Y235336D02*
D03*
Y273526D02*
D03*
X417849Y421511D02*
D03*
Y459699D02*
D03*
X473849Y421511D02*
D03*
Y459699D02*
D03*
X528476Y273526D02*
D03*
Y235336D02*
D03*
X472476Y273526D02*
D03*
Y235336D02*
D03*
X416476Y273526D02*
D03*
Y235336D02*
D03*
D28*
X342566Y385076D02*
D03*
X349495D02*
D03*
X342535Y368974D02*
D03*
X349464D02*
D03*
X366343Y397736D02*
D03*
X359414D02*
D03*
X517495Y385076D02*
D03*
X510566D02*
D03*
X517464Y368974D02*
D03*
X510535D02*
D03*
X527414Y397736D02*
D03*
X534343D02*
D03*
X372830Y309960D02*
D03*
X379759D02*
D03*
X372861Y326062D02*
D03*
X379790D02*
D03*
X362911Y297300D02*
D03*
X355982D02*
D03*
X227060Y248292D02*
D03*
X233989D02*
D03*
X398566Y385076D02*
D03*
X405495D02*
D03*
X398535Y368974D02*
D03*
X405464D02*
D03*
X422343Y397736D02*
D03*
X415414D02*
D03*
X454566Y385076D02*
D03*
X461495D02*
D03*
X454535Y368974D02*
D03*
X461464D02*
D03*
X478343Y397736D02*
D03*
X471414D02*
D03*
X547759Y309960D02*
D03*
X540830D02*
D03*
X547790Y326062D02*
D03*
X540861D02*
D03*
X523982Y297300D02*
D03*
X530911D02*
D03*
X491759Y309960D02*
D03*
X484830D02*
D03*
X491790Y326062D02*
D03*
X484861D02*
D03*
X467982Y297300D02*
D03*
X474911D02*
D03*
X435759Y309960D02*
D03*
X428830D02*
D03*
X435790Y326062D02*
D03*
X428861D02*
D03*
X411982Y297300D02*
D03*
X418911D02*
D03*
X317571Y322000D02*
D03*
X324500D02*
D03*
X294571Y259500D02*
D03*
X301500D02*
D03*
X317535Y372000D02*
D03*
X324465D02*
D03*
X253929Y253500D02*
D03*
X247000D02*
D03*
D29*
X378873Y473105D02*
D03*
X368824D02*
D03*
X536824D02*
D03*
X546874D02*
D03*
X353501Y221931D02*
D03*
X343451D02*
D03*
X424824Y473105D02*
D03*
X434873D02*
D03*
X490873D02*
D03*
X480824D02*
D03*
X511451Y221931D02*
D03*
X521501D02*
D03*
X455451D02*
D03*
X465501D02*
D03*
X399451D02*
D03*
X409501D02*
D03*
D30*
X379995Y363080D02*
D03*
Y370010D02*
D03*
X547995D02*
D03*
Y363080D02*
D03*
X342330Y325026D02*
D03*
Y331956D02*
D03*
X295052Y356998D02*
D03*
Y363927D02*
D03*
X276000Y372035D02*
D03*
Y378965D02*
D03*
X275000Y311965D02*
D03*
Y305035D02*
D03*
X435995Y363080D02*
D03*
Y370010D02*
D03*
X491995Y363080D02*
D03*
Y370010D02*
D03*
X510330Y331956D02*
D03*
Y325026D02*
D03*
X454330Y331956D02*
D03*
Y325026D02*
D03*
X398330Y331956D02*
D03*
Y325026D02*
D03*
X321500Y422535D02*
D03*
Y429465D02*
D03*
D31*
X307035Y338437D02*
D03*
Y336469D02*
D03*
Y334500D02*
D03*
Y332531D02*
D03*
Y330563D02*
D03*
X323965D02*
D03*
Y332531D02*
D03*
Y334500D02*
D03*
Y336469D02*
D03*
Y338437D02*
D03*
Y364437D02*
D03*
Y362469D02*
D03*
Y360500D02*
D03*
Y358531D02*
D03*
Y356563D02*
D03*
X307035D02*
D03*
Y358531D02*
D03*
Y360500D02*
D03*
Y362469D02*
D03*
Y364437D02*
D03*
D32*
X207760Y272602D02*
D03*
X213665D02*
D03*
X219571D02*
D03*
X225476D02*
D03*
X231382D02*
D03*
X237287D02*
D03*
X243193D02*
D03*
X249098D02*
D03*
X255004D02*
D03*
Y341500D02*
D03*
X249098D02*
D03*
X243193D02*
D03*
X237287D02*
D03*
X231382D02*
D03*
X225476D02*
D03*
X219571D02*
D03*
X213665D02*
D03*
X207760D02*
D03*
D33*
X232169Y310831D02*
D03*
Y315161D02*
D03*
Y306500D02*
D03*
X227839D02*
D03*
Y310831D02*
D03*
Y315161D02*
D03*
X236500D02*
D03*
Y310831D02*
D03*
Y306500D02*
D03*
D34*
X262583Y432000D02*
D03*
X255417D02*
D03*
D35*
X262524Y422500D02*
D03*
X255476D02*
D03*
D36*
X296835Y450500D02*
D03*
X316165D02*
D03*
D37*
X219000Y263047D02*
D03*
Y256000D02*
D03*
D38*
X308575Y268000D02*
D03*
Y273000D02*
D03*
Y278000D02*
D03*
Y283000D02*
D03*
X287425D02*
D03*
Y278000D02*
D03*
Y273000D02*
D03*
Y268000D02*
D03*
D39*
X266000Y312165D02*
D03*
Y305000D02*
D03*
D40*
X276000Y352079D02*
D03*
Y361921D02*
D03*
D41*
X296500Y223134D02*
D03*
Y214866D02*
D03*
X314000Y223134D02*
D03*
Y214866D02*
D03*
D42*
X284021Y228854D02*
D03*
X275556D02*
D03*
X284021Y212516D02*
D03*
X275556D02*
D03*
D43*
X243067Y352000D02*
D03*
Y357000D02*
D03*
Y362000D02*
D03*
Y367000D02*
D03*
X263933D02*
D03*
Y362000D02*
D03*
Y357000D02*
D03*
Y352000D02*
D03*
D48*
X362444Y405933D02*
D03*
X530444D02*
D03*
X359880Y289103D02*
D03*
X418444Y405933D02*
D03*
X474444D02*
D03*
X527880Y289103D02*
D03*
X471880D02*
D03*
X415880D02*
D03*
D49*
X362444Y410107D02*
D03*
X530444D02*
D03*
X359880Y284929D02*
D03*
X418444Y410107D02*
D03*
X474444D02*
D03*
X527880Y284929D02*
D03*
X471880D02*
D03*
X415880D02*
D03*
D50*
X366126Y411544D02*
D03*
Y408985D02*
D03*
Y406426D02*
D03*
X358763D02*
D03*
Y408985D02*
D03*
Y411544D02*
D03*
X526763D02*
D03*
Y408985D02*
D03*
Y406426D02*
D03*
X534126D02*
D03*
Y408985D02*
D03*
Y411544D02*
D03*
X363562Y283492D02*
D03*
Y286051D02*
D03*
Y288610D02*
D03*
X356199D02*
D03*
Y286051D02*
D03*
Y283492D02*
D03*
X422126Y411544D02*
D03*
Y408985D02*
D03*
Y406426D02*
D03*
X414763D02*
D03*
Y408985D02*
D03*
Y411544D02*
D03*
X478126D02*
D03*
Y408985D02*
D03*
Y406426D02*
D03*
X470763D02*
D03*
Y408985D02*
D03*
Y411544D02*
D03*
X524199Y283492D02*
D03*
Y286051D02*
D03*
Y288610D02*
D03*
X531562D02*
D03*
Y286051D02*
D03*
Y283492D02*
D03*
X468199D02*
D03*
Y286051D02*
D03*
Y288610D02*
D03*
X475562D02*
D03*
Y286051D02*
D03*
Y283492D02*
D03*
X412199D02*
D03*
Y286051D02*
D03*
Y288610D02*
D03*
X419561D02*
D03*
Y286051D02*
D03*
Y283492D02*
D03*
D51*
X344837Y473105D02*
D03*
X355861D02*
D03*
X523861D02*
D03*
X512837D02*
D03*
X366464Y221931D02*
D03*
X377488D02*
D03*
X400837Y473105D02*
D03*
X411861D02*
D03*
X456837D02*
D03*
X467861D02*
D03*
X545488Y221931D02*
D03*
X534464D02*
D03*
X489488D02*
D03*
X478464D02*
D03*
X433488D02*
D03*
X422464D02*
D03*
D78*
X312300Y408000D02*
G03*
X312300Y408000I-7300J0D01*
G01*
X581300Y214000D02*
G03*
X581300Y214000I-7300J0D01*
G01*
Y480000D02*
G03*
X581300Y480000I-7300J0D01*
G01*
D79*
X254437Y393740D02*
D03*
Y386260D02*
D03*
X246563Y390000D02*
D03*
D80*
X333817Y211362D02*
X409499D01*
X329979Y215201D02*
X333817Y211362D01*
X329979Y215201D02*
Y269678D01*
X255476Y412392D02*
X292648D01*
X292790Y412249D01*
X319855Y405233D02*
X333750D01*
X317512Y422535D02*
X321500D01*
X317512Y407576D02*
Y422535D01*
X307528D02*
X317512D01*
Y407576D02*
X319855Y405233D01*
X356129Y483723D02*
X396372D01*
X411707D02*
X467889D01*
X508372D01*
X553592Y481152D02*
Y481353D01*
X523861Y483696D02*
X551249D01*
X553592Y481353D01*
X409524Y211337D02*
X465363D01*
X466212Y211211D02*
X517435D01*
X523861Y473105D02*
Y483696D01*
X508372D02*
X523861D01*
X378945Y473177D02*
X386001D01*
X378873Y473105D02*
X378945Y473177D01*
X434913Y473144D02*
X441914D01*
X434873Y473105D02*
X434913Y473144D01*
X490873Y473105D02*
X497678D01*
X497730Y473158D01*
X546874Y473105D02*
X553398D01*
X553456Y473047D01*
X336764Y221852D02*
X336843Y221931D01*
X343451D01*
X392295Y221922D02*
X392304Y221931D01*
X399451D01*
X448889D02*
X455451D01*
X448883Y221937D02*
X448889Y221931D01*
X504466Y221974D02*
X504880D01*
X504923Y221931D02*
X511451D01*
X504880Y221974D02*
X504923Y221931D01*
X467889Y473133D02*
Y483723D01*
X396372D02*
X411707D01*
X411861Y483570D01*
Y473105D02*
Y483570D01*
X341256Y483723D02*
X356129D01*
X355861Y483455D02*
X356129Y483723D01*
X355861Y473105D02*
Y483455D01*
X521501Y215277D02*
Y221931D01*
X333750Y476217D02*
X341256Y483723D01*
X511628Y222108D02*
Y225534D01*
X521501Y221931D02*
X534464D01*
X545488D02*
Y261435D01*
X533397Y273526D02*
X545488Y261435D01*
X528476Y273526D02*
X533397D01*
X517722Y231628D02*
X524767D01*
X528476Y235336D01*
X511628Y225534D02*
X517722Y231628D01*
X511451Y221931D02*
X511628Y222108D01*
X528476Y273526D02*
Y284334D01*
X455628Y222108D02*
Y225534D01*
X465501Y221931D02*
X478464D01*
X489488D02*
Y261435D01*
X477397Y273526D02*
X489488Y261435D01*
X472476Y273526D02*
X477397D01*
X461722Y231628D02*
X468767D01*
X472476Y235336D01*
X455628Y225534D02*
X461722Y231628D01*
X455451Y221931D02*
X455628Y222108D01*
X472476Y273526D02*
Y284334D01*
X399628Y222108D02*
Y225534D01*
X409501Y221931D02*
X422464D01*
X433488D02*
Y261435D01*
X421397Y273526D02*
X433488Y261435D01*
X416476Y273526D02*
X421397D01*
X405722Y231628D02*
X412767D01*
X416476Y235336D01*
X399628Y225534D02*
X405722Y231628D01*
X399451Y221931D02*
X399628Y222108D01*
X416476Y273526D02*
Y284334D01*
X523933Y473105D02*
X536824D01*
X512837Y433601D02*
X524928Y421511D01*
X529849D01*
X512837Y433601D02*
Y473105D01*
X546697Y472928D02*
X546874Y473105D01*
X540603Y463408D02*
X546697Y469502D01*
Y472928D01*
X533558Y463408D02*
X540603D01*
X529849Y459699D02*
X533558Y463408D01*
X529849Y410702D02*
Y421511D01*
X467933Y473105D02*
X480824D01*
X456837Y433601D02*
X468928Y421511D01*
X473849D01*
X456837Y433601D02*
Y473105D01*
X490697Y472928D02*
X490873Y473105D01*
X484603Y463408D02*
X490697Y469502D01*
Y472928D01*
X477558Y463408D02*
X484603D01*
X473849Y459699D02*
X477558Y463408D01*
X473849Y410702D02*
Y421511D01*
X411933Y473105D02*
X424824D01*
X400837Y433601D02*
X412928Y421511D01*
X417849D01*
X400837Y433601D02*
Y473105D01*
X434697Y472928D02*
X434873Y473105D01*
X428603Y463408D02*
X434697Y469502D01*
Y472928D01*
X421558Y463408D02*
X428603D01*
X417849Y459699D02*
X421558Y463408D01*
X417849Y410702D02*
Y421511D01*
X280484Y461000D02*
X280543Y460941D01*
X285441D01*
X299000Y474500D01*
X296835Y450500D02*
X297129Y450206D01*
Y428965D02*
Y450206D01*
Y428965D02*
X299472Y426622D01*
X303441D01*
X299000Y474500D02*
X306297Y467203D01*
X323560Y412234D02*
X328180Y416853D01*
X304000Y426063D02*
X307528Y422535D01*
X303441Y426622D02*
X304000Y426063D01*
X325836Y429181D02*
X328180Y426838D01*
X321783Y429181D02*
X325836D01*
X321500Y429465D02*
X321783Y429181D01*
X320890Y429465D02*
X321500D01*
X316498Y433856D02*
X320890Y429465D01*
X304081Y433856D02*
X316498D01*
X304000Y433937D02*
X304081Y433856D01*
X304000Y433937D02*
Y434240D01*
X306297Y436536D01*
Y467203D01*
X316165Y450500D02*
Y467177D01*
X308842Y474500D02*
X316165Y467177D01*
X328180Y416853D02*
Y426838D01*
X353437Y212580D02*
Y221867D01*
X409499Y211362D02*
Y221885D01*
Y211362D02*
X409524Y211337D01*
X466152Y213059D02*
Y221750D01*
X517435Y211211D02*
X521501Y215277D01*
X333750Y386323D02*
Y405233D01*
Y476217D01*
X355933Y473105D02*
X368824D01*
X255476Y412392D02*
Y422500D01*
Y406498D02*
Y412392D01*
X377488Y221931D02*
Y261435D01*
X360476Y273526D02*
Y284334D01*
X353501Y221931D02*
X366464D01*
X356767Y231628D02*
X360476Y235336D01*
Y273526D02*
X365397D01*
X377488Y261435D01*
X349722Y231628D02*
X356767D01*
X343451Y221931D02*
X343628Y222108D01*
Y225534D01*
X349722Y231628D01*
X378697Y472928D02*
X378873Y473105D01*
X378697Y469502D02*
Y472928D01*
X365558Y463408D02*
X372603D01*
X361849Y459699D02*
X365558Y463408D01*
X372603D02*
X378697Y469502D01*
X344837Y433601D02*
Y473105D01*
Y433601D02*
X356928Y421511D01*
X361849D01*
Y410702D02*
Y421511D01*
X255476Y406498D02*
X264500Y397475D01*
Y386126D02*
Y397475D01*
X223993Y373035D02*
Y378164D01*
X242549Y396720D01*
X251457D01*
X254437Y393740D01*
X266837Y470914D02*
X273607D01*
X255417Y459494D02*
X266837Y470914D01*
X273607D02*
X273693Y471000D01*
X255417Y432000D02*
Y459494D01*
Y432000D02*
X255447Y431971D01*
Y422530D02*
X255476Y422500D01*
X255447Y422530D02*
Y431971D01*
X262524Y422500D02*
X262553Y422530D01*
Y431971D02*
X262583Y432000D01*
X262553Y422530D02*
Y431971D01*
X262624Y432041D02*
Y456739D01*
X262583Y432000D02*
X262624Y432041D01*
Y456739D02*
X266799Y460914D01*
X273607D02*
X273693Y461000D01*
X266799Y460914D02*
X273607D01*
X273693Y461000D02*
X280484D01*
X274193Y450500D02*
X296835D01*
X273693Y451000D02*
X274193Y450500D01*
D81*
X209152Y342892D02*
Y365459D01*
X207760Y341500D02*
X209152Y342892D01*
X264081Y272540D02*
Y293045D01*
X269888Y298852D01*
X276610Y378965D02*
X285071Y370504D01*
X289316Y368393D02*
X289749D01*
X285071Y370504D02*
X287205D01*
X289316Y368393D01*
X323745Y338657D02*
X323965Y338437D01*
X320680Y338657D02*
X323745D01*
X319742Y337720D02*
X320680Y338657D01*
X319742Y327368D02*
Y337720D01*
X324500Y322000D02*
Y322610D01*
X319742Y327368D02*
X324500Y322610D01*
X491759Y309960D02*
X497745D01*
X499333Y308372D01*
Y305407D02*
X499640Y305101D01*
X499333Y305407D02*
Y308372D01*
X555892Y399164D02*
X556439Y399712D01*
Y407031D01*
X555892Y391412D02*
Y399164D01*
X555502Y407968D02*
X556439Y407031D01*
X550915Y407968D02*
X555502D01*
X542168Y393569D02*
X548341D01*
X553296Y388614D01*
Y357247D02*
Y388614D01*
X444911Y329217D02*
Y338206D01*
X441611Y325917D02*
X444911Y329217D01*
X507410Y277560D02*
X508854Y276116D01*
X499640Y285331D02*
X507410Y277560D01*
X499640Y285331D02*
Y305101D01*
X213518Y341647D02*
Y359861D01*
Y341647D02*
X213665Y341500D01*
X213371Y360008D02*
X213518Y359861D01*
X396372Y392236D02*
Y483723D01*
X510940Y331956D02*
X514105Y335121D01*
Y335478D01*
X510330Y331956D02*
X510940D01*
X509894Y325107D02*
X510870Y326083D01*
X547790Y326062D02*
X547935Y325917D01*
X553611D01*
X549477Y323968D02*
X550414Y323031D01*
X547790Y325451D02*
X549273Y323968D01*
X547790Y325451D02*
Y326062D01*
X542344Y327545D02*
Y328389D01*
X540830Y306914D02*
Y309960D01*
X547905Y304848D02*
X549953Y302800D01*
Y217718D02*
Y302800D01*
X543125Y304848D02*
X547905D01*
X549016Y216780D02*
X549953Y217718D01*
X536032Y216780D02*
X549016D01*
X541443Y306530D02*
X543125Y304848D01*
X534392Y221859D02*
X534464Y221931D01*
X534392Y218421D02*
X536032Y216780D01*
X534392Y218421D02*
Y221859D01*
X527976Y285735D02*
X528310Y286069D01*
X527880Y284929D02*
X528476Y284334D01*
X529349Y283461D01*
X526758Y286051D02*
X527880Y284929D01*
X524199Y283461D02*
X526515D01*
X524199Y286051D02*
X526758D01*
X524691Y289103D02*
X527880D01*
X528310Y286069D02*
X531562D01*
X529349Y283461D02*
X531562D01*
X550414Y318402D02*
Y323031D01*
X550064Y318052D02*
X550414Y318402D01*
X550064Y312876D02*
Y318052D01*
X549273Y323968D02*
X549477D01*
X547759Y310570D02*
X550064Y312876D01*
X547759Y309960D02*
Y310570D01*
X540899Y318096D02*
Y325569D01*
Y318096D02*
X540937Y318058D01*
X540735Y317857D02*
X540937Y318058D01*
X509894Y318197D02*
Y325107D01*
X540343Y290256D02*
X540932D01*
X540390Y289246D02*
X540647Y288989D01*
X531562Y288610D02*
X538698D01*
X540343Y290256D01*
X529865Y295363D02*
X531344Y296842D01*
X529865Y293163D02*
Y295363D01*
X528927Y292226D02*
X529865Y293163D01*
X517084Y293341D02*
X518199Y292226D01*
X528927D01*
X516888Y297055D02*
X517085Y296857D01*
X517084Y293341D02*
Y296855D01*
X507410Y277560D02*
Y287068D01*
X518737Y288546D02*
X524135D01*
X517655Y287464D02*
X518737Y288546D01*
X517655Y287068D02*
Y287464D01*
Y287528D01*
X509297Y293572D02*
X514258Y288610D01*
X507833Y296857D02*
X509297Y295393D01*
Y293572D02*
Y295393D01*
X516573Y288610D02*
X517655Y287528D01*
X514258Y288610D02*
X516573D01*
X549387Y333264D02*
X550024Y333900D01*
X542344Y328389D02*
X547219Y333264D01*
X549387D01*
X540861Y326062D02*
X542344Y327545D01*
X530746Y317830D02*
X532512Y316063D01*
Y310728D02*
Y316063D01*
X516820Y317830D02*
X530746D01*
X532512Y310728D02*
X532894Y310347D01*
X514126Y315136D02*
X516820Y317830D01*
X514126Y313178D02*
Y315136D01*
X509894Y308945D02*
X514126Y313178D01*
X528341Y305922D02*
Y310571D01*
X538900Y304985D02*
X540830Y306914D01*
X528341Y305922D02*
X529278Y304985D01*
X527960Y310952D02*
X528341Y310571D01*
X529278Y304985D02*
X538900D01*
X526671Y302442D02*
X537997D01*
X523101Y306012D02*
Y310811D01*
X537997Y302442D02*
X540932Y299508D01*
X522960Y310952D02*
X523101Y310811D01*
Y306012D02*
X526671Y302442D01*
X517960Y305342D02*
Y310952D01*
X515277Y305224D02*
X517842D01*
X517960Y305342D01*
X524291Y299011D01*
X514971Y304918D02*
X515277Y305224D01*
X517894Y328731D02*
Y329796D01*
X517512Y328350D02*
X517894Y328731D01*
X516108Y328350D02*
X517512D01*
X513841Y326083D02*
X516108Y328350D01*
X510870Y326083D02*
X513841D01*
X519353Y338726D02*
X522893Y335186D01*
Y329796D02*
Y335186D01*
X505966Y338726D02*
X519353D01*
X505029Y302719D02*
X506280Y301467D01*
X516157D01*
X505029Y337789D02*
X505966Y338726D01*
X505029Y302719D02*
Y337789D01*
X517084Y296855D02*
X517085Y296857D01*
X516157Y301467D02*
X516888Y300737D01*
Y297055D02*
Y300737D01*
X527952Y337241D02*
X527960Y337233D01*
Y330400D02*
Y337233D01*
X534935Y330177D02*
X536957Y328155D01*
X539377D01*
X532512Y330177D02*
X534935D01*
X539377Y328155D02*
X540861Y326672D01*
X454940Y331956D02*
X458105Y335121D01*
Y335478D01*
X454330Y331956D02*
X454940D01*
X453894Y325107D02*
X454870Y326083D01*
X491790Y326062D02*
X491935Y325917D01*
X497611D01*
X493477Y323968D02*
X494414Y323031D01*
X491790Y325451D02*
X493273Y323968D01*
X491790Y325451D02*
Y326062D01*
X486344Y327545D02*
Y328389D01*
X484830Y306914D02*
Y309960D01*
X493953Y217718D02*
Y302800D01*
X491905Y304848D02*
X493953Y302800D01*
X493016Y216780D02*
X493953Y217718D01*
X480032Y216780D02*
X493016D01*
X485443Y306530D02*
X487125Y304848D01*
X491905D01*
X478392Y221859D02*
X478464Y221931D01*
X478392Y218421D02*
X480032Y216780D01*
X478392Y218421D02*
Y221859D01*
X471976Y285735D02*
X472310Y286069D01*
X471880Y284929D02*
X472476Y284334D01*
X473349Y283461D01*
X470758Y286051D02*
X471880Y284929D01*
X468199Y283461D02*
X470515D01*
X468199Y286051D02*
X470758D01*
X468691Y289103D02*
X471880D01*
X472310Y286069D02*
X475562D01*
X473349Y283461D02*
X475562D01*
X494414Y318402D02*
Y323031D01*
X494064Y318052D02*
X494414Y318402D01*
X494064Y312876D02*
Y318052D01*
X493273Y323968D02*
X493477D01*
X491759Y310570D02*
X494064Y312876D01*
X491759Y309960D02*
Y310570D01*
X484899Y318096D02*
Y325569D01*
Y318096D02*
X484937Y318058D01*
X484735Y317857D02*
X484937Y318058D01*
X453894Y318197D02*
Y325107D01*
X484343Y290256D02*
X484932D01*
X484390Y289246D02*
X484647Y288989D01*
X475562Y288610D02*
X482698D01*
X484343Y290256D01*
X473865Y295363D02*
X475344Y296842D01*
X473865Y293163D02*
Y295363D01*
X472927Y292226D02*
X473865Y293163D01*
X462199Y292226D02*
X472927D01*
X461084Y293341D02*
Y296855D01*
Y293341D02*
X462199Y292226D01*
X460888Y297055D02*
X461085Y296857D01*
X461084Y296855D02*
X461085Y296857D01*
X451410Y277560D02*
Y287068D01*
Y277560D02*
X452854Y276116D01*
X462737Y288546D02*
X468135D01*
X461655Y287464D02*
X462737Y288546D01*
X461655Y287068D02*
Y287464D01*
Y287528D01*
X453297Y293572D02*
X458258Y288610D01*
X451833Y296857D02*
X453297Y295393D01*
Y293572D02*
Y295393D01*
X460573Y288610D02*
X461655Y287528D01*
X458258Y288610D02*
X460573D01*
X493387Y333264D02*
X494024Y333900D01*
X486344Y328389D02*
X491219Y333264D01*
X493387D01*
X484861Y326062D02*
X486344Y327545D01*
X474746Y317830D02*
X476512Y316063D01*
Y310728D02*
Y316063D01*
X460820Y317830D02*
X474746D01*
X476512Y310728D02*
X476894Y310347D01*
X458126Y315136D02*
X460820Y317830D01*
X458126Y313178D02*
Y315136D01*
X453894Y308945D02*
X458126Y313178D01*
X472341Y305922D02*
Y310571D01*
X482900Y304985D02*
X484830Y306914D01*
X472341Y305922D02*
X473278Y304985D01*
X471960Y310952D02*
X472341Y310571D01*
X473278Y304985D02*
X482900D01*
X470671Y302442D02*
X481997D01*
X467101Y306012D02*
Y310811D01*
X481997Y302442D02*
X484932Y299508D01*
X466960Y310952D02*
X467101Y310811D01*
Y306012D02*
X470671Y302442D01*
X461960Y305342D02*
Y310952D01*
X459277Y305224D02*
X461842D01*
X461960Y305342D01*
X468291Y299011D01*
X458971Y304918D02*
X459277Y305224D01*
X461894Y328731D02*
Y329796D01*
X461512Y328350D02*
X461894Y328731D01*
X460108Y328350D02*
X461512D01*
X457841Y326083D02*
X460108Y328350D01*
X454870Y326083D02*
X457841D01*
X466893Y329796D02*
Y335186D01*
X463353Y338726D02*
X466893Y335186D01*
X449966Y338726D02*
X463353D01*
X449029Y302719D02*
X450280Y301467D01*
X460157D01*
X449029Y337789D02*
X449966Y338726D01*
X449029Y302719D02*
Y337789D01*
X460157Y301467D02*
X460888Y300737D01*
Y297055D02*
Y300737D01*
X471952Y337241D02*
X471960Y337233D01*
Y330400D02*
Y337233D01*
X478935Y330177D02*
X480957Y328155D01*
X483377D01*
X476512Y330177D02*
X478935D01*
X483377Y328155D02*
X484861Y326672D01*
X398940Y331956D02*
X402105Y335121D01*
Y335478D01*
X398330Y331956D02*
X398940D01*
X397894Y325107D02*
X398870Y326083D01*
X435790Y326062D02*
X435935Y325917D01*
X441611D01*
X437477Y323968D02*
X438414Y323031D01*
X435790Y325451D02*
X437273Y323968D01*
X435790Y325451D02*
Y326062D01*
X430344Y327545D02*
Y328389D01*
X428830Y306914D02*
Y309960D01*
X437953Y217718D02*
Y302800D01*
X435906Y304848D02*
X437953Y302800D01*
X437016Y216780D02*
X437953Y217718D01*
X424032Y216780D02*
X437016D01*
X429443Y306530D02*
X431125Y304848D01*
X435906D01*
X422392Y221859D02*
X422464Y221931D01*
X422392Y218421D02*
X424032Y216780D01*
X422392Y218421D02*
Y221859D01*
X415976Y285735D02*
X416310Y286069D01*
X415880Y284929D02*
X416476Y284334D01*
X417348Y283461D01*
X414758Y286051D02*
X415880Y284929D01*
X412199Y283461D02*
X414515D01*
X412199Y286051D02*
X414758D01*
X412691Y289103D02*
X415880D01*
X416310Y286069D02*
X419561D01*
X417348Y283461D02*
X419561D01*
X438414Y318402D02*
Y323031D01*
X438064Y318052D02*
X438414Y318402D01*
X438064Y312876D02*
Y318052D01*
X437273Y323968D02*
X437477D01*
X435759Y310570D02*
X438064Y312876D01*
X435759Y309960D02*
Y310570D01*
X428899Y318096D02*
Y325569D01*
Y318096D02*
X428937Y318058D01*
X428735Y317857D02*
X428937Y318058D01*
X397894Y318197D02*
Y325107D01*
X428343Y290256D02*
X428932D01*
X428390Y289246D02*
X428647Y288989D01*
X419561Y288610D02*
X426698D01*
X428343Y290256D01*
X417865Y295363D02*
X419344Y296842D01*
X417865Y293163D02*
Y295363D01*
X416927Y292226D02*
X417865Y293163D01*
X405084Y293341D02*
X406199Y292226D01*
X416927D01*
X404888Y297055D02*
X405085Y296857D01*
X405084Y293341D02*
Y296855D01*
X395410Y277560D02*
Y287068D01*
Y277560D02*
X396854Y276116D01*
X406737Y288546D02*
X412135D01*
X405655Y287464D02*
X406737Y288546D01*
X405655Y287068D02*
Y287464D01*
Y287528D01*
X397297Y293572D02*
X402258Y288610D01*
X395833Y296857D02*
X397297Y295393D01*
Y293572D02*
Y295393D01*
X404573Y288610D02*
X405655Y287528D01*
X402258Y288610D02*
X404573D01*
X437387Y333264D02*
X438024Y333900D01*
X430344Y328389D02*
X435219Y333264D01*
X437387D01*
X428861Y326062D02*
X430344Y327545D01*
X418746Y317830D02*
X420512Y316063D01*
Y310728D02*
Y316063D01*
X404820Y317830D02*
X418746D01*
X420512Y310728D02*
X420893Y310347D01*
X402126Y315136D02*
X404820Y317830D01*
X402126Y313178D02*
Y315136D01*
X397894Y308945D02*
X402126Y313178D01*
X416341Y305922D02*
Y310571D01*
X426900Y304985D02*
X428830Y306914D01*
X416341Y305922D02*
X417278Y304985D01*
X415960Y310952D02*
X416341Y310571D01*
X417278Y304985D02*
X426900D01*
X414671Y302442D02*
X425997D01*
X411101Y306012D02*
Y310811D01*
X425997Y302442D02*
X428932Y299508D01*
X410960Y310952D02*
X411101Y310811D01*
Y306012D02*
X414671Y302442D01*
X405960Y305342D02*
Y310952D01*
X403277Y305224D02*
X405842D01*
X405960Y305342D01*
X412291Y299011D01*
X402971Y304918D02*
X403277Y305224D01*
X405894Y328731D02*
Y329796D01*
X405512Y328350D02*
X405894Y328731D01*
X404108Y328350D02*
X405512D01*
X401841Y326083D02*
X404108Y328350D01*
X398870Y326083D02*
X401841D01*
X407353Y338726D02*
X410893Y335186D01*
Y329796D02*
Y335186D01*
X393966Y338726D02*
X407353D01*
X393029Y302719D02*
X394280Y301467D01*
X404157D01*
X393029Y337789D02*
X393966Y338726D01*
X393029Y302719D02*
Y337789D01*
X405084Y296855D02*
X405085Y296857D01*
X404157Y301467D02*
X404888Y300737D01*
Y297055D02*
Y300737D01*
X415952Y337241D02*
X415960Y337233D01*
Y330400D02*
Y337233D01*
X422935Y330177D02*
X424957Y328155D01*
X427377D01*
X420512Y330177D02*
X422935D01*
X427377Y328155D02*
X428861Y326672D01*
X544219Y359915D02*
X547385Y363080D01*
X547995D01*
X544219Y359558D02*
Y359915D01*
X547455Y368953D02*
X548431Y369929D01*
X509052Y371068D02*
X510535Y369584D01*
Y368974D02*
Y369584D01*
X507910Y372005D02*
X508848Y371068D01*
X510390Y369119D02*
X510535Y368974D01*
X504714Y369119D02*
X510390D01*
X515199Y390188D02*
X516882Y388506D01*
X510419Y390188D02*
X515199D01*
X508372Y392236D02*
Y483460D01*
Y392236D02*
X510419Y390188D01*
X528976Y411575D02*
X529849Y410702D01*
X530444Y410107D02*
X531567Y408985D01*
X531810Y411575D02*
X534126D01*
X531567Y408985D02*
X534126D01*
X530444Y405933D02*
X533634D01*
X530015Y408966D02*
X530349Y409301D01*
X526763Y408966D02*
X530015D01*
X529849Y410702D02*
X530444Y410107D01*
X526763Y411575D02*
X528976D01*
X510566Y384466D02*
Y385076D01*
X508261Y376984D02*
Y382160D01*
X510566Y384466D01*
X508848Y371068D02*
X509052D01*
X507910Y372005D02*
Y376634D01*
X508261Y376984D01*
X517388Y376978D02*
X517589Y377179D01*
X517388Y376978D02*
X517426Y376940D01*
Y369467D02*
Y376940D01*
X548431Y369929D02*
Y376839D01*
X519627Y406426D02*
X526763D01*
X517981Y404780D02*
X519627Y406426D01*
X517393Y404780D02*
X517981D01*
X517677Y406047D02*
X517935Y405790D01*
X541240Y398179D02*
X541437Y397981D01*
X541240Y398179D02*
X541241Y398181D01*
X540126Y402810D02*
X541241Y401695D01*
Y398181D02*
Y401695D01*
X529397Y402810D02*
X540126D01*
X528460Y401873D02*
X529397Y402810D01*
X528460Y399673D02*
Y401873D01*
X526981Y398194D02*
X528460Y399673D01*
X550915Y407968D02*
Y417476D01*
X549471Y418920D02*
X550915Y417476D01*
X541752Y406426D02*
X544067D01*
X549028Y401464D01*
X540670Y407572D02*
Y407968D01*
Y407508D02*
X541752Y406426D01*
X549028Y399643D02*
X550492Y398179D01*
X549028Y399643D02*
Y401464D01*
X540670Y407508D02*
Y407572D01*
X539588Y406490D02*
X540670Y407572D01*
X534190Y406490D02*
X539588D01*
X515981Y367491D02*
X517464Y368974D01*
X515981Y366647D02*
Y367491D01*
X511106Y361772D02*
X515981Y366647D01*
X508938Y361772D02*
X511106D01*
X508301Y361136D02*
X508938Y361772D01*
X517464Y368364D02*
X518948Y366880D01*
X523389Y364859D02*
X525812D01*
X518948Y366880D02*
X521368D01*
X523389Y364859D01*
X530365Y357803D02*
X530373Y357795D01*
X530365Y357803D02*
Y364635D01*
X541437Y394299D02*
Y397981D01*
X552359Y356310D02*
X553296Y357247D01*
X541437Y394299D02*
X542168Y393569D01*
X535431Y359850D02*
X538972Y356310D01*
X552359D01*
X535431Y359850D02*
Y365240D01*
X544484Y368953D02*
X547455D01*
X542216Y366686D02*
X544484Y368953D01*
X540812Y366686D02*
X542216D01*
X540431Y366304D02*
X540812Y366686D01*
X540431Y365240D02*
Y366304D01*
X543048Y389811D02*
X543354Y390118D01*
X534034Y396025D02*
X540365Y389694D01*
X540483Y389811D02*
X543048D01*
X540365Y389694D02*
X540483Y389811D01*
X540365Y384084D02*
Y389694D01*
X535224Y384225D02*
Y389023D01*
X531654Y392594D02*
X535224Y389023D01*
Y384225D02*
X535365Y384084D01*
X517393Y395528D02*
X520328Y392594D01*
X531654D01*
X529047Y390051D02*
X529984Y389114D01*
X519425Y390051D02*
X529047D01*
X529984Y384465D02*
Y389114D01*
Y384465D02*
X530365Y384084D01*
X517495Y388122D02*
X519425Y390051D01*
X544199Y381858D02*
X548431Y386091D01*
X544199Y379900D02*
Y381858D01*
X541505Y377206D02*
X544199Y379900D01*
X527579Y377206D02*
X541505D01*
X525431Y384689D02*
X525812Y384308D01*
Y378973D02*
X527579Y377206D01*
X525812Y378973D02*
Y384308D01*
X488219Y359915D02*
X491385Y363080D01*
X491995D01*
X488219Y359558D02*
Y359915D01*
X491455Y368953D02*
X492431Y369929D01*
X453052Y371068D02*
X454535Y369584D01*
Y368974D02*
Y369584D01*
X451910Y372005D02*
X452848Y371068D01*
X454390Y369119D02*
X454535Y368974D01*
X448714Y369119D02*
X454390D01*
X459199Y390188D02*
X460882Y388506D01*
X452372Y392236D02*
Y483057D01*
Y392236D02*
X454419Y390188D01*
X459199D01*
X472976Y411575D02*
X473849Y410702D01*
X474444Y410107D02*
X475567Y408985D01*
X475810Y411575D02*
X478126D01*
X475567Y408985D02*
X478126D01*
X474444Y405933D02*
X477633D01*
X474015Y408966D02*
X474349Y409301D01*
X470763Y408966D02*
X474015D01*
X473849Y410702D02*
X474444Y410107D01*
X470763Y411575D02*
X472976D01*
X454566Y384466D02*
Y385076D01*
X452261Y376984D02*
Y382160D01*
X454566Y384466D01*
X452848Y371068D02*
X453052D01*
X451910Y372005D02*
Y376634D01*
X452261Y376984D01*
X461388Y376978D02*
X461589Y377179D01*
X461388Y376978D02*
X461426Y376940D01*
Y369467D02*
Y376940D01*
X492431Y369929D02*
Y376839D01*
X463627Y406426D02*
X470763D01*
X461981Y404780D02*
X463627Y406426D01*
X461393Y404780D02*
X461981D01*
X461678Y406047D02*
X461935Y405790D01*
X485240Y398179D02*
X485437Y397981D01*
X485240Y398179D02*
X485241Y398181D01*
X484126Y402810D02*
X485241Y401695D01*
Y398181D02*
Y401695D01*
X473397Y402810D02*
X484126D01*
X472460Y401873D02*
X473397Y402810D01*
X472460Y399673D02*
Y401873D01*
X470981Y398194D02*
X472460Y399673D01*
X494915Y407968D02*
Y417476D01*
X493471Y418920D02*
X494915Y417476D01*
X485752Y406426D02*
X488067D01*
X493028Y401464D01*
X484670Y407572D02*
Y407968D01*
Y407508D02*
X485752Y406426D01*
X493028Y399643D02*
X494492Y398179D01*
X493028Y399643D02*
Y401464D01*
X484670Y407508D02*
Y407572D01*
X483588Y406490D02*
X484670Y407572D01*
X478190Y406490D02*
X483588D01*
X459981Y367491D02*
X461464Y368974D01*
X459981Y366647D02*
Y367491D01*
X455106Y361772D02*
X459981Y366647D01*
X452938Y361772D02*
X455106D01*
X452301Y361136D02*
X452938Y361772D01*
X461464Y368364D02*
X462948Y366880D01*
X467389Y364859D02*
X469812D01*
X462948Y366880D02*
X465368D01*
X467389Y364859D01*
X474365Y357803D02*
X474373Y357795D01*
X474365Y357803D02*
Y364635D01*
X485437Y394299D02*
Y397981D01*
X497296Y357247D02*
Y392317D01*
X496045Y393569D02*
X497296Y392317D01*
X496359Y356310D02*
X497296Y357247D01*
X485437Y394299D02*
X486168Y393569D01*
X496045D01*
X479431Y359850D02*
X482972Y356310D01*
X496359D01*
X479431Y359850D02*
Y365240D01*
X488483Y368953D02*
X491455D01*
X486216Y366686D02*
X488483Y368953D01*
X484812Y366686D02*
X486216D01*
X484431Y366304D02*
X484812Y366686D01*
X484431Y365240D02*
Y366304D01*
X487048Y389811D02*
X487354Y390118D01*
X478034Y396025D02*
X484365Y389694D01*
X484483Y389811D02*
X487048D01*
X484365Y389694D02*
X484483Y389811D01*
X484365Y384084D02*
Y389694D01*
X479224Y384225D02*
Y389023D01*
X475654Y392594D02*
X479224Y389023D01*
Y384225D02*
X479365Y384084D01*
X461393Y395528D02*
X464328Y392594D01*
X475654D01*
X463425Y390051D02*
X473047D01*
X473984Y389114D01*
X461495Y388122D02*
X463425Y390051D01*
X473984Y384465D02*
Y389114D01*
Y384465D02*
X474365Y384084D01*
X488199Y381858D02*
X492431Y386091D01*
X488199Y379900D02*
Y381858D01*
X485505Y377206D02*
X488199Y379900D01*
X471579Y377206D02*
X485505D01*
X469431Y384689D02*
X469812Y384308D01*
Y378973D02*
X471579Y377206D01*
X469812Y378973D02*
Y384308D01*
X432220Y359915D02*
X435385Y363080D01*
X435995D01*
X432220Y359558D02*
Y359915D01*
X435455Y368953D02*
X436431Y369929D01*
X397052Y371068D02*
X398535Y369584D01*
Y368974D02*
Y369584D01*
X395911Y372005D02*
X396848Y371068D01*
X398390Y369119D02*
X398535Y368974D01*
X392714Y369119D02*
X398390D01*
X403199Y390188D02*
X404882Y388506D01*
X396372Y392236D02*
X398419Y390188D01*
X403199D01*
X416976Y411575D02*
X417849Y410702D01*
X418444Y410107D02*
X419567Y408985D01*
X419810Y411575D02*
X422126D01*
X419567Y408985D02*
X422126D01*
X418444Y405933D02*
X421633D01*
X418015Y408966D02*
X418349Y409301D01*
X414763Y408966D02*
X418015D01*
X417849Y410702D02*
X418444Y410107D01*
X414763Y411575D02*
X416976D01*
X398566Y384466D02*
Y385076D01*
X396261Y376984D02*
Y382160D01*
X398566Y384466D01*
X396848Y371068D02*
X397052D01*
X395911Y372005D02*
Y376634D01*
X396261Y376984D01*
X405388Y376978D02*
X405589Y377179D01*
X405388Y376978D02*
X405426Y376940D01*
Y369467D02*
Y376940D01*
X436431Y369929D02*
Y376839D01*
X407627Y406426D02*
X414763D01*
X405981Y404780D02*
X407627Y406426D01*
X405393Y404780D02*
X405981D01*
X405678Y406047D02*
X405935Y405790D01*
X429240Y398179D02*
X429437Y397981D01*
X429240Y398179D02*
X429241Y398181D01*
X428126Y402810D02*
X429241Y401695D01*
Y398181D02*
Y401695D01*
X417397Y402810D02*
X428126D01*
X416460Y401873D02*
X417397Y402810D01*
X416460Y399673D02*
Y401873D01*
X414981Y398194D02*
X416460Y399673D01*
X438915Y407968D02*
Y417476D01*
X437471Y418920D02*
X438915Y417476D01*
X429752Y406426D02*
X432067D01*
X437028Y401464D01*
X428670Y407572D02*
Y407968D01*
Y407508D02*
Y407572D01*
X437028Y399643D02*
X438492Y398179D01*
X437028Y399643D02*
Y401464D01*
X427588Y406490D02*
X428670Y407572D01*
Y407508D02*
X429752Y406426D01*
X422190Y406490D02*
X427588D01*
X403981Y367491D02*
X405464Y368974D01*
X403981Y366647D02*
Y367491D01*
X399106Y361772D02*
X403981Y366647D01*
X396938Y361772D02*
X399106D01*
X396301Y361136D02*
X396938Y361772D01*
X405464Y368364D02*
X406948Y366880D01*
X411389Y364859D02*
X413812D01*
X406948Y366880D02*
X409368D01*
X411389Y364859D01*
X418365Y357803D02*
X418373Y357795D01*
X418365Y357803D02*
Y364635D01*
X429437Y394299D02*
Y397981D01*
X441296Y357247D02*
Y392317D01*
X440045Y393569D02*
X441296Y392317D01*
X440359Y356310D02*
X441296Y357247D01*
X429437Y394299D02*
X430168Y393569D01*
X440045D01*
X423431Y359850D02*
X426972Y356310D01*
X440359D01*
X423431Y359850D02*
Y365240D01*
X432483Y368953D02*
X435455D01*
X430217Y366686D02*
X432483Y368953D01*
X428813Y366686D02*
X430217D01*
X428431Y366304D02*
X428813Y366686D01*
X428431Y365240D02*
Y366304D01*
X431048Y389811D02*
X431354Y390118D01*
X422034Y396025D02*
X428365Y389694D01*
X428483Y389811D02*
X431048D01*
X428365Y389694D02*
X428483Y389811D01*
X428365Y384084D02*
Y389694D01*
X423224Y384225D02*
Y389023D01*
X419654Y392594D02*
X423224Y389023D01*
Y384225D02*
X423365Y384084D01*
X405393Y395528D02*
X408328Y392594D01*
X419654D01*
X417047Y390051D02*
X417984Y389114D01*
X407425Y390051D02*
X417047D01*
X417984Y384465D02*
Y389114D01*
Y384465D02*
X418365Y384084D01*
X405495Y388122D02*
X407425Y390051D01*
X432199Y381858D02*
X436431Y386091D01*
X432199Y379900D02*
Y381858D01*
X429505Y377206D02*
X432199Y379900D01*
X415579Y377206D02*
X429505D01*
X413431Y384689D02*
X413812Y384308D01*
Y378973D02*
X415579Y377206D01*
X413812Y378973D02*
Y384308D01*
X295281Y363927D02*
Y370153D01*
X281791Y383643D02*
X295281Y370153D01*
X301226Y381104D02*
X301248Y381126D01*
X323965Y364437D02*
X324216D01*
X324465Y364686D01*
Y372000D01*
X323829Y372635D02*
X324465Y372000D01*
X323829Y372635D02*
Y375839D01*
X318542Y381126D02*
X323829Y375839D01*
X306500Y381126D02*
X318542D01*
X301248D02*
X306500D01*
X325244Y268544D02*
Y281563D01*
X320500Y282500D02*
X324307D01*
X322330Y265629D02*
X325244Y268544D01*
X324307Y282500D02*
X325244Y281563D01*
X276000Y378965D02*
X276610D01*
X361865Y293163D02*
Y295363D01*
X363344Y296842D01*
X355101Y306012D02*
Y310811D01*
X360341Y305922D02*
Y310571D01*
X370900Y304985D02*
X372830Y306914D01*
X361278Y304985D02*
X370900D01*
X360341Y305922D02*
X361278Y304985D01*
X355101Y306012D02*
X358671Y302442D01*
X369997D02*
X372932Y299508D01*
X358671Y302442D02*
X369997D01*
X368032Y216780D02*
X381016D01*
X381953Y217718D01*
X366392Y218421D02*
X368032Y216780D01*
X381953Y217718D02*
Y302800D01*
X379906Y304848D02*
X381953Y302800D01*
X375126Y304848D02*
X379906D01*
X373443Y306530D02*
X375126Y304848D01*
X359880Y284929D02*
X360476Y284334D01*
X358758Y286051D02*
X359880Y284929D01*
X359976Y285735D02*
X360310Y286069D01*
X356199Y286051D02*
X358758D01*
X360310Y286069D02*
X363562D01*
X349655Y287464D02*
Y287528D01*
X348573Y288610D02*
X349655Y287528D01*
Y287068D02*
Y287464D01*
X346258Y288610D02*
X348573D01*
X360476Y284334D02*
X361349Y283461D01*
X356199D02*
X358515D01*
X361349D02*
X363562D01*
X372830Y306914D02*
Y309960D01*
X364512Y310728D02*
X364894Y310347D01*
X359960Y310952D02*
X360341Y310571D01*
X354960Y310952D02*
X355101Y310811D01*
X364512Y310728D02*
Y316063D01*
X362746Y317830D02*
X364512Y316063D01*
X348820Y317830D02*
X362746D01*
X372736Y317857D02*
X372937Y318058D01*
X371377Y328155D02*
X372861Y326672D01*
Y326062D02*
X374344Y327545D01*
X379790Y325451D02*
Y326062D01*
X381273Y323968D02*
X381477D01*
X379790Y325451D02*
X381273Y323968D01*
X379790Y326062D02*
X379935Y325917D01*
X385611D01*
X363562Y288610D02*
X370698D01*
X372390Y289246D02*
X372647Y288989D01*
X370698Y288610D02*
X372343Y290256D01*
X372932D01*
X360927Y292226D02*
X361865Y293163D01*
X342870Y326083D02*
X345841D01*
X349512Y328350D02*
X349893Y328731D01*
X348108Y328350D02*
X349512D01*
X341894Y325107D02*
X342870Y326083D01*
X345841D02*
X348108Y328350D01*
X366392Y218421D02*
Y221859D01*
X366464Y221931D01*
X339410Y277560D02*
X340854Y276116D01*
X379759Y309960D02*
Y310570D01*
X382064Y318052D02*
X382414Y318402D01*
X372899Y318096D02*
X372937Y318058D01*
X379759Y310570D02*
X382064Y312876D01*
X372899Y318096D02*
Y325569D01*
X382064Y312876D02*
Y318052D01*
X382414Y318402D02*
Y323031D01*
X381477Y323968D02*
X382414Y323031D01*
X349842Y305224D02*
X349960Y305342D01*
X346971Y304918D02*
X347277Y305224D01*
X349842D01*
X337029Y302719D02*
X338280Y301467D01*
X348157D02*
X348888Y300737D01*
X338280Y301467D02*
X348157D01*
X349960Y305342D02*
X356291Y299011D01*
X339410Y277560D02*
Y287068D01*
X356691Y289103D02*
X359880D01*
X350199Y292226D02*
X360927D01*
X341297Y293572D02*
X346258Y288610D01*
X349083Y293341D02*
X350199Y292226D01*
X349083Y293341D02*
Y296855D01*
X349085Y296857D01*
X339833D02*
X341297Y295393D01*
Y293572D02*
Y295393D01*
X348888Y297055D02*
Y300737D01*
Y297055D02*
X349085Y296857D01*
X359960Y330400D02*
Y337233D01*
X359952Y337241D02*
X359960Y337233D01*
X374344Y327545D02*
Y328389D01*
X368957Y328155D02*
X371377D01*
X366935Y330177D02*
X368957Y328155D01*
X364512Y330177D02*
X366935D01*
X374344Y328389D02*
X379219Y333264D01*
X354893Y329796D02*
Y335186D01*
X379219Y333264D02*
X381387D01*
X382024Y333900D01*
X350737Y288546D02*
X356135D01*
X349655Y287464D02*
X350737Y288546D01*
X341894Y318197D02*
Y325107D01*
X349960Y305342D02*
Y310952D01*
X346126Y315136D02*
X348820Y317830D01*
X349893Y328731D02*
Y329796D01*
X351353Y338726D02*
X354893Y335186D01*
X341894Y308945D02*
X346126Y313178D01*
Y315136D01*
X337029Y302719D02*
Y337789D01*
X342330Y331956D02*
X342940D01*
X337029Y337789D02*
X337966Y338726D01*
X351353D01*
X346105Y335121D02*
Y335478D01*
X342940Y331956D02*
X346105Y335121D01*
X379455Y368953D02*
X380431Y369929D01*
X376220Y359558D02*
Y359915D01*
X379385Y363080D01*
X379995D01*
X347981Y366647D02*
Y367491D01*
X342535Y368974D02*
Y369584D01*
X336714Y369119D02*
X342390D01*
X342535Y368974D01*
X339911Y372005D02*
X340848Y371068D01*
X341052D02*
X342535Y369584D01*
X340372Y392236D02*
X342419Y390188D01*
X347199D02*
X348882Y388506D01*
X342419Y390188D02*
X347199D01*
X340372Y392236D02*
Y482379D01*
X358763Y408966D02*
X362015D01*
X362349Y409301D01*
X361849Y410702D02*
X362444Y410107D01*
X360976Y411575D02*
X361849Y410702D01*
X358763Y411575D02*
X360976D01*
X362444Y410107D02*
X363567Y408985D01*
X366126D01*
X363810Y411575D02*
X366126D01*
X362444Y405933D02*
X365634D01*
X349426Y369467D02*
Y376940D01*
X349388Y376978D02*
X349426Y376940D01*
X349388Y376978D02*
X349589Y377179D01*
X339911Y372005D02*
Y376634D01*
X340261Y376984D01*
X340848Y371068D02*
X341052D01*
X340261Y376984D02*
Y382160D01*
X342566Y384466D01*
Y385076D01*
X380431Y369929D02*
Y376839D01*
X349393Y404780D02*
X349981D01*
X349677Y406047D02*
X349935Y405790D01*
X351627Y406426D02*
X358763D01*
X349981Y404780D02*
X351627Y406426D01*
X358981Y398194D02*
X360460Y399673D01*
Y401873D01*
X361398Y402810D01*
X372126D01*
X373241Y398181D02*
Y401695D01*
X372126Y402810D02*
X373241Y401695D01*
X373240Y398179D02*
X373437Y397981D01*
X373240Y398179D02*
X373241Y398181D01*
X366190Y406490D02*
X371588D01*
X372670Y407572D01*
Y407968D01*
Y407508D02*
Y407572D01*
X376067Y406426D02*
X381028Y401464D01*
Y399643D02*
X382492Y398179D01*
X381028Y399643D02*
Y401464D01*
X372670Y407508D02*
X373752Y406426D01*
X376067D01*
X382915Y407968D02*
Y417476D01*
X381471Y418920D02*
X382915Y417476D01*
X340301Y361136D02*
X340938Y361772D01*
X343106D02*
X347981Y366647D01*
X340938Y361772D02*
X343106D01*
X347981Y367491D02*
X349464Y368974D01*
X353368Y366880D02*
X355389Y364859D01*
X350948Y366880D02*
X353368D01*
X355389Y364859D02*
X357812D01*
X349464Y368364D02*
X350948Y366880D01*
X362365Y357803D02*
X362373Y357795D01*
X362365Y357803D02*
Y364635D01*
X367431Y359850D02*
Y365240D01*
Y359850D02*
X370972Y356310D01*
X384359D01*
X384045Y393569D02*
X385296Y392317D01*
X374168Y393569D02*
X384045D01*
X384359Y356310D02*
X385296Y357247D01*
Y392317D01*
X373437Y394299D02*
X374168Y393569D01*
X373437Y394299D02*
Y397981D01*
X372431Y365240D02*
Y366304D01*
X372813Y366686D01*
X374217D01*
X376483Y368953D01*
X379455D01*
X372365Y384084D02*
Y389694D01*
X372483Y389811D02*
X375048D01*
X366034Y396025D02*
X372365Y389694D01*
X372483Y389811D01*
X375048D02*
X375354Y390118D01*
X352328Y392594D02*
X363654D01*
X367224Y384225D02*
Y389023D01*
X349393Y395528D02*
X352328Y392594D01*
X367224Y384225D02*
X367365Y384084D01*
X363654Y392594D02*
X367224Y389023D01*
X349495Y388122D02*
X351425Y390051D01*
X361047D01*
X361984Y384465D02*
X362365Y384084D01*
X361047Y390051D02*
X361984Y389114D01*
Y384465D02*
Y389114D01*
X357812Y378973D02*
X359579Y377206D01*
X357812Y378973D02*
Y384308D01*
X359579Y377206D02*
X373505D01*
X357431Y384689D02*
X357812Y384308D01*
X373505Y377206D02*
X376199Y379900D01*
Y381858D01*
X380431Y386091D01*
X264703Y332179D02*
X265915Y333391D01*
X272070Y383643D02*
X281791D01*
X269846Y381418D02*
X272070Y383643D01*
X258559Y380481D02*
X259497Y381418D01*
X258559Y372374D02*
Y380481D01*
X259497Y381418D02*
X269846D01*
X262174Y367381D02*
X262555Y367000D01*
X263933D01*
X262174Y367381D02*
Y368759D01*
X258559Y372374D02*
X262174Y368759D01*
X265362Y376012D02*
X267920D01*
X268857Y375075D01*
X264500Y376874D02*
X265362Y376012D01*
X268857Y363377D02*
Y375075D01*
X267862Y362381D02*
X268857Y363377D01*
X263933Y362000D02*
X264314Y362381D01*
X267862D01*
X276000Y361921D02*
Y372035D01*
X275961Y352039D02*
X276000Y352079D01*
X263933Y352000D02*
X263972Y352039D01*
X275961D01*
X275612Y361534D02*
X276000Y361921D01*
X275612Y359258D02*
Y361534D01*
X273355Y357000D02*
X275612Y359258D01*
X263933Y357000D02*
X273355D01*
X243448Y352381D02*
X246905D01*
X243067Y352000D02*
X243448Y352381D01*
X246905D02*
X248920Y354397D01*
Y368731D01*
X246563Y371089D02*
Y390000D01*
Y371089D02*
X248920Y368731D01*
X230713Y367000D02*
X243067D01*
X219571Y355858D02*
X230713Y367000D01*
X219571Y341500D02*
Y355858D01*
X225476Y356491D02*
X230985Y362000D01*
X243067D01*
X225476Y341500D02*
Y356491D01*
X227317Y263047D02*
X233347D01*
X219000D02*
X227317D01*
X227060Y248292D02*
Y262790D01*
X227317Y263047D01*
X225476Y335613D02*
Y341500D01*
Y335613D02*
X225485Y335604D01*
X219571Y335765D02*
X219632Y335704D01*
X219571Y335765D02*
Y341500D01*
X253534Y335231D02*
X255004Y336702D01*
X253534Y334939D02*
Y335231D01*
X255004Y336702D02*
Y341500D01*
X296876Y296935D02*
X302954Y290857D01*
X296521Y296935D02*
X296876D01*
X296429Y291357D02*
X296633D01*
X300420Y287570D01*
Y282318D02*
Y287570D01*
X300612Y278000D02*
X302954Y280342D01*
X282181Y278000D02*
X300612D01*
X302954Y280342D02*
Y290857D01*
X298744Y280641D02*
X300420Y282318D01*
X294869Y280641D02*
X298744D01*
X292511Y283000D02*
X294869Y280641D01*
X287425Y283000D02*
X292511D01*
X266212Y258496D02*
X275556Y249152D01*
X227795Y327572D02*
X251449D01*
X265940Y342064D01*
X219571Y319348D02*
X227795Y327572D01*
X229008Y324336D02*
X253484D01*
X261328Y332179D01*
X223590Y318918D02*
X229008Y324336D01*
X237294Y272609D02*
Y281976D01*
X237287Y272602D02*
X237294Y272609D01*
Y281976D02*
X237300Y281982D01*
X231513Y278084D02*
X231643Y278214D01*
X231382Y272602D02*
X231513Y272733D01*
Y278084D01*
X243193Y265555D02*
X245248Y263500D01*
X243193Y265555D02*
Y272602D01*
X291316Y251740D02*
X293886D01*
X297000Y248626D01*
X310709Y251417D02*
X314000Y248126D01*
X308207Y251417D02*
X310709D01*
X213683Y272620D02*
Y280137D01*
X213665Y272602D02*
X213683Y272620D01*
Y280137D02*
X213701Y280154D01*
X233347Y263047D02*
X241610Y254784D01*
X245716D01*
X247000Y253500D01*
X264081Y272540D02*
X266212Y270410D01*
Y258496D02*
Y270410D01*
X269935Y274526D02*
Y277831D01*
X270718Y278615D01*
X283634Y282733D02*
X287158D01*
X270718Y278615D02*
X279516D01*
X287158Y282733D02*
X287425Y283000D01*
X279516Y278615D02*
X283634Y282733D01*
X278964Y275838D02*
X280019D01*
X277500Y274374D02*
X278964Y275838D01*
X280019D02*
X282181Y278000D01*
X212667Y254863D02*
X217863D01*
X219000Y256000D01*
X212643Y254838D02*
X212667Y254863D01*
X210464Y254838D02*
X212643D01*
X275556Y228854D02*
Y249152D01*
Y212516D02*
Y228854D01*
X316201Y259500D02*
X322330Y265629D01*
X321392Y214866D02*
X322330Y215803D01*
Y265629D01*
X314000Y214866D02*
X321392D01*
X261328Y332179D02*
X264703D01*
X219571Y272602D02*
Y319348D01*
X223590Y302560D02*
Y318918D01*
Y302560D02*
X225476Y300675D01*
Y272602D02*
Y300675D01*
X254770Y305000D02*
X266000D01*
X238000D02*
X254770D01*
X255004Y272602D02*
Y304766D01*
X254770Y305000D02*
X255004Y304766D01*
X275000Y305035D02*
X275610D01*
X283823Y313248D01*
X307000D01*
X234335Y315161D02*
X236500D01*
X232169D02*
X234335D01*
X230004D02*
X232169D01*
X227839D02*
X230004D01*
X227839Y312996D02*
Y315161D01*
Y310831D02*
Y312996D01*
X232169Y310831D02*
Y312996D01*
X236500Y310831D02*
Y312996D01*
Y308665D02*
Y310831D01*
Y306500D02*
Y308665D01*
X232169D02*
Y310831D01*
Y306500D02*
Y308665D01*
X227839D02*
Y310831D01*
Y306500D02*
Y308665D01*
X230004Y306500D02*
X232169D01*
X227839D02*
X230004D01*
X234335D02*
X236500D01*
X232169D02*
X234335D01*
X236500D02*
X238000Y305000D01*
X266000D02*
X266018Y305018D01*
X274982D02*
X275000Y305035D01*
X266018Y305018D02*
X274982D01*
X323045Y316706D02*
Y320545D01*
X324500Y322000D01*
X319587Y313248D02*
X323045Y316706D01*
X307000Y313248D02*
X319587D01*
X307000D02*
X308575Y311673D01*
Y283000D02*
Y311673D01*
X301500Y259500D02*
X316201D01*
X320250Y282750D02*
X320500Y282500D01*
X308575Y283000D02*
X308825Y282750D01*
X320250D01*
X316047Y270443D02*
X317388Y271784D01*
X303994Y270443D02*
X316047D01*
X301436Y273000D02*
X303994Y270443D01*
X319036Y271784D02*
X320500Y273248D01*
X317388Y271784D02*
X319036D01*
X287425Y273000D02*
X301436D01*
X284021Y213303D02*
Y228854D01*
Y212516D02*
Y213303D01*
X297000Y223634D02*
Y239374D01*
X296500Y223134D02*
X297000Y223634D01*
X314000Y223134D02*
Y238874D01*
X296500Y214866D02*
X314000D01*
X284500Y213783D02*
X285288D01*
X286371Y214866D01*
X284021Y213303D02*
X284500Y213783D01*
X286371Y214866D02*
X296500D01*
X209000Y253374D02*
X210464Y254838D01*
X209000Y253374D02*
X212592Y249782D01*
Y224034D02*
Y249782D01*
Y224034D02*
X218625Y218000D01*
X224764D01*
X247000Y235236D02*
Y253500D01*
X226874Y248478D02*
X227060Y248292D01*
X239764Y228000D02*
X247000Y235236D01*
D82*
X264513Y298603D02*
Y298711D01*
X261844Y295935D02*
X264513Y298603D01*
X261844Y271591D02*
Y295935D01*
X279663Y337371D02*
X279989Y337697D01*
X275244Y333468D02*
X279147Y337371D01*
X279663D01*
X295128Y355465D02*
X296106Y356442D01*
X297139Y283957D02*
Y286578D01*
X258352Y348094D02*
X291076D01*
X295052Y356998D02*
X295662D01*
X296106Y356442D02*
Y356901D01*
X295662Y356998D02*
X297195Y358531D01*
Y359142D01*
X302490Y364437D01*
X307035D01*
X317535Y371390D02*
Y372000D01*
X317500Y371965D02*
X317535Y372000D01*
X291076Y348094D02*
X295128Y352145D01*
Y355465D01*
X317500Y340822D02*
Y371965D01*
X275192Y333520D02*
Y342064D01*
X275610Y311965D02*
X281562Y317917D01*
X275000Y311965D02*
X275610D01*
X269935Y292383D02*
X275148Y297596D01*
X269935Y283778D02*
Y292383D01*
X317500Y322071D02*
X317571Y322000D01*
X317500Y322071D02*
Y340822D01*
X307108Y338510D02*
Y340865D01*
X307035Y338437D02*
X307108Y338510D01*
X281562Y317917D02*
X314098D01*
X317571Y321390D02*
Y322000D01*
X314098Y317917D02*
X317571Y321390D01*
X284626Y250500D02*
X291482Y257356D01*
X293037D01*
X294571Y258890D01*
X254437Y352009D02*
X258352Y348094D01*
X254437Y352009D02*
Y386260D01*
X264366D02*
X264500Y386126D01*
X254437Y386260D02*
X264366D01*
X235191Y234569D02*
Y246486D01*
X235523Y246154D01*
X233989Y247687D02*
X235191Y246486D01*
X235523Y246154D02*
X242628D01*
X242674Y246200D01*
X233989Y247687D02*
Y248292D01*
X289756Y268081D02*
X297023D01*
X289675Y268000D02*
X289756Y268081D01*
X297023D02*
X297104Y268162D01*
X243193Y341500D02*
X243261Y341431D01*
Y335097D02*
X243330Y335028D01*
X243261Y335097D02*
Y341431D01*
X249098Y331577D02*
Y341500D01*
X249003Y331482D02*
X249098Y331577D01*
X284294Y287457D02*
X296260D01*
X297139Y286578D01*
X281977Y285140D02*
X284294Y287457D01*
X277500Y283626D02*
X279014Y285140D01*
X281977D01*
X287425Y268000D02*
X289675D01*
X261844Y271591D02*
X263868Y269567D01*
X259589Y270624D02*
Y299274D01*
X261570Y213049D02*
Y268642D01*
X259589Y270624D02*
X261570Y268642D01*
X270087Y283626D02*
X277500D01*
X269935Y283778D02*
X270087Y283626D01*
X282887Y244679D02*
X284626Y246418D01*
X280221Y244679D02*
X282887D01*
X284626Y246418D02*
Y250500D01*
X253975Y246407D02*
Y253454D01*
X253929Y253500D02*
X253975Y253454D01*
X266000Y312165D02*
X266201Y311965D01*
X275000D01*
X209000Y267210D02*
Y270181D01*
Y262626D02*
Y267210D01*
X233297D02*
X241721Y258785D01*
X209000Y267210D02*
X233297D01*
X294571Y259500D02*
Y260110D01*
X289992Y264689D02*
X294571Y260110D01*
X289992Y264689D02*
Y267683D01*
X289675Y268000D02*
X289992Y267683D01*
X294571Y258890D02*
Y259500D01*
X260844Y208936D02*
X263868Y211961D01*
Y269567D01*
X243827Y208936D02*
X260844D01*
X234764Y218000D02*
X243827Y208936D01*
X259997Y211477D02*
X261570Y213049D01*
X244764Y218000D02*
X251287Y211477D01*
X259997D01*
X249231Y228050D02*
X249813D01*
X249098Y272602D02*
X249836Y271865D01*
Y268937D02*
Y271865D01*
X258272Y267486D02*
X259151Y266607D01*
X249836Y268937D02*
X251288Y267486D01*
X259151Y237387D02*
Y266607D01*
X251288Y267486D02*
X258272D01*
X249813Y228050D02*
X259151Y237387D01*
X249231Y228050D02*
X249281Y228000D01*
X249764D01*
X254500Y258785D02*
Y263500D01*
Y254071D02*
Y258785D01*
X241721D02*
X254500D01*
X253929Y253500D02*
X254500Y254071D01*
X207760Y271421D02*
X209000Y270181D01*
X207760Y271421D02*
Y272602D01*
X229764Y228000D02*
Y229142D01*
X235191Y234569D01*
D83*
X305000Y408000D02*
D03*
X574000Y214000D02*
D03*
Y480000D02*
D03*
D84*
X299000Y474500D02*
D03*
D85*
X308842D02*
D03*
D86*
X227839Y312996D02*
D03*
X230004Y315161D02*
D03*
X234335D02*
D03*
X227839Y308665D02*
D03*
X232169Y312996D02*
D03*
X230004Y310831D02*
D03*
Y306500D02*
D03*
X232169Y308665D02*
D03*
X236500Y312996D02*
D03*
Y308665D02*
D03*
X234335Y310831D02*
D03*
Y306500D02*
D03*
D87*
X273693Y451000D02*
D03*
D88*
Y461000D02*
D03*
Y471000D02*
D03*
D89*
X304000Y433937D02*
D03*
D90*
Y426063D02*
D03*
D91*
X570737Y267514D02*
D03*
Y275389D02*
D03*
Y283262D02*
D03*
Y291137D02*
D03*
Y299010D02*
D03*
Y306885D02*
D03*
Y314758D02*
D03*
Y322633D02*
D03*
Y330507D02*
D03*
X571026Y357043D02*
D03*
Y364917D02*
D03*
Y372791D02*
D03*
Y380665D02*
D03*
Y388539D02*
D03*
Y396413D02*
D03*
Y404287D02*
D03*
Y412161D02*
D03*
Y420035D02*
D03*
D92*
X570737Y338381D02*
D03*
X571026Y427909D02*
D03*
D93*
X255000Y218000D02*
D03*
D94*
X244764D02*
D03*
X234764D02*
D03*
X249764Y228000D02*
D03*
X239764D02*
D03*
X224764Y218000D02*
D03*
X229764Y228000D02*
D03*
D95*
X219528D02*
D03*
D96*
X209152Y365459D02*
D03*
X292790Y412249D02*
D03*
X497720Y480204D02*
D03*
X385973Y481078D02*
D03*
X442148Y480607D02*
D03*
X553592Y481152D02*
D03*
X336597Y214341D02*
D03*
X392089Y214836D02*
D03*
X504302Y214817D02*
D03*
X448611Y215043D02*
D03*
X553456Y473047D02*
D03*
X497678Y473105D02*
D03*
X441914Y473144D02*
D03*
X386001Y473177D02*
D03*
X336764Y221852D02*
D03*
X392304Y221931D02*
D03*
X448883Y221937D02*
D03*
X504466Y221974D02*
D03*
X323560Y412234D02*
D03*
X329979Y269678D02*
D03*
X333750Y386323D02*
D03*
X223993Y373035D02*
D03*
D97*
X269888Y298852D02*
D03*
X264513Y298711D02*
D03*
X279989Y337697D02*
D03*
X289749Y368393D02*
D03*
X555892Y391412D02*
D03*
X444911Y338206D02*
D03*
X499640Y305101D02*
D03*
X213371Y360008D02*
D03*
X514105Y335478D02*
D03*
X553611Y325917D02*
D03*
X508854Y276116D02*
D03*
X514971Y304918D02*
D03*
X527952Y337241D02*
D03*
X458105Y335478D02*
D03*
X497611Y325917D02*
D03*
X452854Y276116D02*
D03*
X458971Y304918D02*
D03*
X471952Y337241D02*
D03*
X402105Y335478D02*
D03*
X441611Y325917D02*
D03*
X396854Y276116D02*
D03*
X402971Y304918D02*
D03*
X415952Y337241D02*
D03*
X544219Y359558D02*
D03*
X504714Y369119D02*
D03*
X549471Y418920D02*
D03*
X530373Y357795D02*
D03*
X543354Y390118D02*
D03*
X488219Y359558D02*
D03*
X448714Y369119D02*
D03*
X493471Y418920D02*
D03*
X474373Y357795D02*
D03*
X487354Y390118D02*
D03*
X432220Y359558D02*
D03*
X392714Y369119D02*
D03*
X437471Y418920D02*
D03*
X418373Y357795D02*
D03*
X431354Y390118D02*
D03*
X301226Y381104D02*
D03*
X284619Y348366D02*
D03*
X281562Y317917D02*
D03*
X275148Y297596D02*
D03*
X317500Y340822D02*
D03*
X307108Y340865D02*
D03*
X340854Y276116D02*
D03*
X346971Y304918D02*
D03*
X346105Y335478D02*
D03*
X359952Y337241D02*
D03*
X385611Y325917D02*
D03*
X376220Y359558D02*
D03*
X336714Y369119D02*
D03*
X381471Y418920D02*
D03*
X362373Y357795D02*
D03*
X375354Y390118D02*
D03*
X242674Y246200D02*
D03*
X219632Y335704D02*
D03*
X225476Y335613D02*
D03*
X253534Y334939D02*
D03*
X296521Y296935D02*
D03*
X296429Y291357D02*
D03*
X297104Y268162D02*
D03*
X297128Y283958D02*
D03*
X259589Y299274D02*
D03*
X243330Y335028D02*
D03*
X249098Y331577D02*
D03*
X231643Y278214D02*
D03*
X237300Y281982D02*
D03*
X291309Y251676D02*
D03*
X308197Y251400D02*
D03*
X213701Y280154D02*
D03*
X213661Y250756D02*
D03*
X280221Y244679D02*
D03*
X253975Y246407D02*
D03*
M02*
