G04*
G04 #@! TF.GenerationSoftware,Altium Limited,Altium Designer,24.0.1 (36)*
G04*
G04 Layer_Color=255*
%FSLAX25Y25*%
%MOIN*%
G70*
G04*
G04 #@! TF.SameCoordinates,A2E01C4A-C41F-4235-85C4-DC12FCC8AE1E*
G04*
G04*
G04 #@! TF.FilePolarity,Positive*
G04*
G01*
G75*
G04:AMPARAMS|DCode=23|XSize=77.56mil|YSize=23.62mil|CornerRadius=2.95mil|HoleSize=0mil|Usage=FLASHONLY|Rotation=90.000|XOffset=0mil|YOffset=0mil|HoleType=Round|Shape=RoundedRectangle|*
%AMROUNDEDRECTD23*
21,1,0.07756,0.01772,0,0,90.0*
21,1,0.07165,0.02362,0,0,90.0*
1,1,0.00591,0.00886,0.03583*
1,1,0.00591,0.00886,-0.03583*
1,1,0.00591,-0.00886,-0.03583*
1,1,0.00591,-0.00886,0.03583*
%
%ADD23ROUNDEDRECTD23*%
%ADD24R,0.04528X0.04528*%
%ADD25R,0.03764X0.06338*%
%ADD26R,0.04528X0.04528*%
%ADD27R,0.21260X0.11417*%
%ADD28R,0.04567X0.05787*%
%ADD29R,0.04353X0.06528*%
%ADD30R,0.05787X0.04567*%
G04:AMPARAMS|DCode=31|XSize=57.87mil|YSize=11.02mil|CornerRadius=1.38mil|HoleSize=0mil|Usage=FLASHONLY|Rotation=0.000|XOffset=0mil|YOffset=0mil|HoleType=Round|Shape=RoundedRectangle|*
%AMROUNDEDRECTD31*
21,1,0.05787,0.00827,0,0,0.0*
21,1,0.05512,0.01102,0,0,0.0*
1,1,0.00276,0.02756,-0.00413*
1,1,0.00276,-0.02756,-0.00413*
1,1,0.00276,-0.02756,0.00413*
1,1,0.00276,0.02756,0.00413*
%
%ADD31ROUNDEDRECTD31*%
%ADD32R,0.03543X0.05906*%
%ADD33R,0.02756X0.02756*%
%ADD34R,0.04685X0.05787*%
%ADD35R,0.04252X0.05591*%
%ADD36R,0.08465X0.11024*%
%ADD37R,0.05591X0.04252*%
%ADD38R,0.06634X0.02134*%
%ADD39R,0.05787X0.04685*%
%ADD40R,0.07480X0.04331*%
%ADD41R,0.05118X0.04331*%
%ADD42R,0.02559X0.04134*%
%ADD43R,0.05118X0.02362*%
%ADD48R,0.02598X0.01378*%
%ADD49R,0.04331X0.04921*%
%ADD50R,0.01693X0.01378*%
%ADD51R,0.04724X0.04724*%
%ADD79R,0.02756X0.02362*%
%ADD83C,0.06000*%
%ADD84R,0.06201X0.06201*%
%ADD85C,0.06201*%
%ADD86C,0.01575*%
%ADD87R,0.04449X0.04449*%
%ADD88C,0.04449*%
%ADD89C,0.05118*%
G04:AMPARAMS|DCode=90|XSize=51.18mil|YSize=51.18mil|CornerRadius=12.8mil|HoleSize=0mil|Usage=FLASHONLY|Rotation=270.000|XOffset=0mil|YOffset=0mil|HoleType=Round|Shape=RoundedRectangle|*
%AMROUNDEDRECTD90*
21,1,0.05118,0.02559,0,0,270.0*
21,1,0.02559,0.05118,0,0,270.0*
1,1,0.02559,-0.01280,-0.01280*
1,1,0.02559,-0.01280,0.01280*
1,1,0.02559,0.01280,0.01280*
1,1,0.02559,0.01280,-0.01280*
%
%ADD90ROUNDEDRECTD90*%
%ADD91C,0.05150*%
%ADD92R,0.05150X0.05150*%
%ADD93C,0.08268*%
%ADD94C,0.06890*%
%ADD95C,0.09843*%
D23*
X357365Y364635D02*
D03*
X362365D02*
D03*
X367365D02*
D03*
X372365D02*
D03*
Y384084D02*
D03*
X367365D02*
D03*
X362365D02*
D03*
X357365D02*
D03*
X525365Y364635D02*
D03*
X530365D02*
D03*
X535365D02*
D03*
X540365D02*
D03*
Y384084D02*
D03*
X535365D02*
D03*
X530365D02*
D03*
X525365D02*
D03*
X364960Y330400D02*
D03*
X359960D02*
D03*
X354960D02*
D03*
X349960D02*
D03*
Y310952D02*
D03*
X354960D02*
D03*
X359960D02*
D03*
X364960D02*
D03*
X413365Y384084D02*
D03*
X418365D02*
D03*
X423365D02*
D03*
X428365D02*
D03*
Y364635D02*
D03*
X423365D02*
D03*
X418365D02*
D03*
X413365D02*
D03*
X469365Y384084D02*
D03*
X474365D02*
D03*
X479365D02*
D03*
X484365D02*
D03*
Y364635D02*
D03*
X479365D02*
D03*
X474365D02*
D03*
X469365D02*
D03*
X532960Y310952D02*
D03*
X527960D02*
D03*
X522960D02*
D03*
X517960D02*
D03*
Y330400D02*
D03*
X522960D02*
D03*
X527960D02*
D03*
X532960D02*
D03*
X476960Y310952D02*
D03*
X471960D02*
D03*
X466960D02*
D03*
X461960D02*
D03*
Y330400D02*
D03*
X466960D02*
D03*
X471960D02*
D03*
X476960D02*
D03*
X420960Y310952D02*
D03*
X415960D02*
D03*
X410960D02*
D03*
X405960D02*
D03*
Y330400D02*
D03*
X410960D02*
D03*
X415960D02*
D03*
X420960D02*
D03*
D24*
X350299Y360308D02*
D03*
X341047D02*
D03*
X373240Y398179D02*
D03*
X382492D02*
D03*
X340261Y376984D02*
D03*
X349513D02*
D03*
X509047Y360308D02*
D03*
X518299D02*
D03*
X550492Y398179D02*
D03*
X541240D02*
D03*
X517513Y376984D02*
D03*
X508261D02*
D03*
X381278Y334728D02*
D03*
X372026D02*
D03*
X339833Y296857D02*
D03*
X349085D02*
D03*
X372812Y318052D02*
D03*
X382064D02*
D03*
X254500Y263500D02*
D03*
X245248D02*
D03*
X406299Y360308D02*
D03*
X397047D02*
D03*
X396261Y376984D02*
D03*
X405513D02*
D03*
X429240Y398179D02*
D03*
X438492D02*
D03*
X462299Y360308D02*
D03*
X453047D02*
D03*
X452261Y376984D02*
D03*
X461513D02*
D03*
X485240Y398179D02*
D03*
X494492D02*
D03*
X540026Y334728D02*
D03*
X549278D02*
D03*
X550064Y318052D02*
D03*
X540812D02*
D03*
X517085Y296857D02*
D03*
X507833D02*
D03*
X484026Y334728D02*
D03*
X493278D02*
D03*
X494064Y318052D02*
D03*
X484812D02*
D03*
X461085Y296857D02*
D03*
X451833D02*
D03*
X428026Y334728D02*
D03*
X437278D02*
D03*
X438064Y318052D02*
D03*
X428812D02*
D03*
X405085Y296857D02*
D03*
X395833D02*
D03*
X265992Y333468D02*
D03*
X275244D02*
D03*
X265940Y342064D02*
D03*
X275192D02*
D03*
X284626Y250500D02*
D03*
X275374D02*
D03*
D25*
X382915Y407968D02*
D03*
X372670D02*
D03*
X540670D02*
D03*
X550915D02*
D03*
X405655Y287068D02*
D03*
X395410D02*
D03*
X349655D02*
D03*
X339410D02*
D03*
X428670Y407968D02*
D03*
X438915D02*
D03*
X494915D02*
D03*
X484670D02*
D03*
X507410Y287068D02*
D03*
X517655D02*
D03*
X451410D02*
D03*
X461655D02*
D03*
D26*
X349393Y395528D02*
D03*
Y404780D02*
D03*
X380431Y376839D02*
D03*
Y386091D02*
D03*
X517393Y404780D02*
D03*
Y395528D02*
D03*
X548431Y386091D02*
D03*
Y376839D02*
D03*
X372932Y290256D02*
D03*
Y299508D02*
D03*
X341894Y308945D02*
D03*
Y318197D02*
D03*
X306500Y381126D02*
D03*
Y371874D02*
D03*
X307000Y313248D02*
D03*
Y322500D02*
D03*
X436431Y376839D02*
D03*
Y386091D02*
D03*
X405393Y395528D02*
D03*
Y404780D02*
D03*
X492431Y376839D02*
D03*
Y386091D02*
D03*
X461393Y395528D02*
D03*
Y404780D02*
D03*
X509894Y318197D02*
D03*
Y308945D02*
D03*
X540932Y299508D02*
D03*
Y290256D02*
D03*
X453894Y318197D02*
D03*
Y308945D02*
D03*
X484932Y299508D02*
D03*
Y290256D02*
D03*
X397894Y318197D02*
D03*
Y308945D02*
D03*
X428932Y299508D02*
D03*
Y290256D02*
D03*
X320500Y273248D02*
D03*
Y282500D02*
D03*
X277500Y283626D02*
D03*
Y274374D02*
D03*
X269935Y274526D02*
D03*
Y283778D02*
D03*
X264500Y386126D02*
D03*
Y376874D02*
D03*
X297000Y248626D02*
D03*
Y239374D02*
D03*
X314000Y248126D02*
D03*
Y238874D02*
D03*
X209000Y253374D02*
D03*
Y262626D02*
D03*
D27*
X361849Y421511D02*
D03*
Y459699D02*
D03*
X529849Y421511D02*
D03*
Y459699D02*
D03*
X360476Y235336D02*
D03*
Y273526D02*
D03*
X417849Y421511D02*
D03*
Y459699D02*
D03*
X473849Y421511D02*
D03*
Y459699D02*
D03*
X528476Y273526D02*
D03*
Y235336D02*
D03*
X472476Y273526D02*
D03*
Y235336D02*
D03*
X416476Y273526D02*
D03*
Y235336D02*
D03*
D28*
X342566Y385076D02*
D03*
X349495D02*
D03*
X342535Y368974D02*
D03*
X349464D02*
D03*
X366343Y397736D02*
D03*
X359414D02*
D03*
X517495Y385076D02*
D03*
X510566D02*
D03*
X517464Y368974D02*
D03*
X510535D02*
D03*
X527414Y397736D02*
D03*
X534343D02*
D03*
X372830Y309960D02*
D03*
X379759D02*
D03*
X372861Y326062D02*
D03*
X379790D02*
D03*
X362911Y297300D02*
D03*
X355982D02*
D03*
X227060Y248292D02*
D03*
X233989D02*
D03*
X398566Y385076D02*
D03*
X405495D02*
D03*
X398535Y368974D02*
D03*
X405464D02*
D03*
X422343Y397736D02*
D03*
X415414D02*
D03*
X454566Y385076D02*
D03*
X461495D02*
D03*
X454535Y368974D02*
D03*
X461464D02*
D03*
X478343Y397736D02*
D03*
X471414D02*
D03*
X547759Y309960D02*
D03*
X540830D02*
D03*
X547790Y326062D02*
D03*
X540861D02*
D03*
X523982Y297300D02*
D03*
X530911D02*
D03*
X491759Y309960D02*
D03*
X484830D02*
D03*
X491790Y326062D02*
D03*
X484861D02*
D03*
X467982Y297300D02*
D03*
X474911D02*
D03*
X435759Y309960D02*
D03*
X428830D02*
D03*
X435790Y326062D02*
D03*
X428861D02*
D03*
X411982Y297300D02*
D03*
X418911D02*
D03*
X317571Y322000D02*
D03*
X324500D02*
D03*
X294571Y259500D02*
D03*
X301500D02*
D03*
X317535Y372000D02*
D03*
X324465D02*
D03*
X253929Y253500D02*
D03*
X247000D02*
D03*
D29*
X378873Y473105D02*
D03*
X368824D02*
D03*
X536824D02*
D03*
X546874D02*
D03*
X353501Y221931D02*
D03*
X343451D02*
D03*
X424824Y473105D02*
D03*
X434873D02*
D03*
X490873D02*
D03*
X480824D02*
D03*
X511451Y221931D02*
D03*
X521501D02*
D03*
X455451D02*
D03*
X465501D02*
D03*
X399451D02*
D03*
X409501D02*
D03*
D30*
X379995Y363080D02*
D03*
Y370010D02*
D03*
X547995D02*
D03*
Y363080D02*
D03*
X342330Y325026D02*
D03*
Y331956D02*
D03*
X295052Y356998D02*
D03*
Y363927D02*
D03*
X276000Y372035D02*
D03*
Y378965D02*
D03*
X275000Y311965D02*
D03*
Y305035D02*
D03*
X435995Y363080D02*
D03*
Y370010D02*
D03*
X491995Y363080D02*
D03*
Y370010D02*
D03*
X510330Y331956D02*
D03*
Y325026D02*
D03*
X454330Y331956D02*
D03*
Y325026D02*
D03*
X398330Y331956D02*
D03*
Y325026D02*
D03*
X321500Y422535D02*
D03*
Y429465D02*
D03*
D31*
X307035Y338437D02*
D03*
Y336469D02*
D03*
Y334500D02*
D03*
Y332531D02*
D03*
Y330563D02*
D03*
X323965D02*
D03*
Y332531D02*
D03*
Y334500D02*
D03*
Y336469D02*
D03*
Y338437D02*
D03*
Y364437D02*
D03*
Y362469D02*
D03*
Y360500D02*
D03*
Y358531D02*
D03*
Y356563D02*
D03*
X307035D02*
D03*
Y358531D02*
D03*
Y360500D02*
D03*
Y362469D02*
D03*
Y364437D02*
D03*
D32*
X207760Y272602D02*
D03*
X213665D02*
D03*
X219571D02*
D03*
X225476D02*
D03*
X231382D02*
D03*
X237287D02*
D03*
X243193D02*
D03*
X249098D02*
D03*
X255004D02*
D03*
Y341500D02*
D03*
X249098D02*
D03*
X243193D02*
D03*
X237287D02*
D03*
X231382D02*
D03*
X225476D02*
D03*
X219571D02*
D03*
X213665D02*
D03*
X207760D02*
D03*
D33*
X232169Y310831D02*
D03*
Y315161D02*
D03*
Y306500D02*
D03*
X227839D02*
D03*
Y310831D02*
D03*
Y315161D02*
D03*
X236500D02*
D03*
Y310831D02*
D03*
Y306500D02*
D03*
D34*
X262583Y432000D02*
D03*
X255417D02*
D03*
D35*
X262524Y422500D02*
D03*
X255476D02*
D03*
D36*
X296835Y450500D02*
D03*
X316165D02*
D03*
D37*
X219000Y263047D02*
D03*
Y256000D02*
D03*
D38*
X308575Y268000D02*
D03*
Y273000D02*
D03*
Y278000D02*
D03*
Y283000D02*
D03*
X287425D02*
D03*
Y278000D02*
D03*
Y273000D02*
D03*
Y268000D02*
D03*
D39*
X266000Y312165D02*
D03*
Y305000D02*
D03*
D40*
X276000Y352079D02*
D03*
Y361921D02*
D03*
D41*
X296500Y223134D02*
D03*
Y214866D02*
D03*
X314000Y223134D02*
D03*
Y214866D02*
D03*
D42*
X284021Y228854D02*
D03*
X275556D02*
D03*
X284021Y212516D02*
D03*
X275556D02*
D03*
D43*
X243067Y352000D02*
D03*
Y357000D02*
D03*
Y362000D02*
D03*
Y367000D02*
D03*
X263933D02*
D03*
Y362000D02*
D03*
Y357000D02*
D03*
Y352000D02*
D03*
D48*
X362444Y405933D02*
D03*
X530444D02*
D03*
X359880Y289103D02*
D03*
X418444Y405933D02*
D03*
X474444D02*
D03*
X527880Y289103D02*
D03*
X471880D02*
D03*
X415880D02*
D03*
D49*
X362444Y410107D02*
D03*
X530444D02*
D03*
X359880Y284929D02*
D03*
X418444Y410107D02*
D03*
X474444D02*
D03*
X527880Y284929D02*
D03*
X471880D02*
D03*
X415880D02*
D03*
D50*
X366126Y411544D02*
D03*
Y408985D02*
D03*
Y406426D02*
D03*
X358763D02*
D03*
Y408985D02*
D03*
Y411544D02*
D03*
X526763D02*
D03*
Y408985D02*
D03*
Y406426D02*
D03*
X534126D02*
D03*
Y408985D02*
D03*
Y411544D02*
D03*
X363562Y283492D02*
D03*
Y286051D02*
D03*
Y288610D02*
D03*
X356199D02*
D03*
Y286051D02*
D03*
Y283492D02*
D03*
X422126Y411544D02*
D03*
Y408985D02*
D03*
Y406426D02*
D03*
X414763D02*
D03*
Y408985D02*
D03*
Y411544D02*
D03*
X478126D02*
D03*
Y408985D02*
D03*
Y406426D02*
D03*
X470763D02*
D03*
Y408985D02*
D03*
Y411544D02*
D03*
X524199Y283492D02*
D03*
Y286051D02*
D03*
Y288610D02*
D03*
X531562D02*
D03*
Y286051D02*
D03*
Y283492D02*
D03*
X468199D02*
D03*
Y286051D02*
D03*
Y288610D02*
D03*
X475562D02*
D03*
Y286051D02*
D03*
Y283492D02*
D03*
X412199D02*
D03*
Y286051D02*
D03*
Y288610D02*
D03*
X419561D02*
D03*
Y286051D02*
D03*
Y283492D02*
D03*
D51*
X344837Y473105D02*
D03*
X355861D02*
D03*
X523861D02*
D03*
X512837D02*
D03*
X366464Y221931D02*
D03*
X377488D02*
D03*
X400837Y473105D02*
D03*
X411861D02*
D03*
X456837D02*
D03*
X467861D02*
D03*
X545488Y221931D02*
D03*
X534464D02*
D03*
X489488D02*
D03*
X478464D02*
D03*
X433488D02*
D03*
X422464D02*
D03*
D79*
X254437Y393740D02*
D03*
Y386260D02*
D03*
X246563Y390000D02*
D03*
D83*
X305000Y408000D02*
D03*
X574000Y214000D02*
D03*
Y480000D02*
D03*
D84*
X299000Y474500D02*
D03*
D85*
X308842D02*
D03*
D86*
X227839Y312996D02*
D03*
X230004Y315161D02*
D03*
X234335D02*
D03*
X227839Y308665D02*
D03*
X232169Y312996D02*
D03*
X230004Y310831D02*
D03*
Y306500D02*
D03*
X232169Y308665D02*
D03*
X236500Y312996D02*
D03*
Y308665D02*
D03*
X234335Y310831D02*
D03*
Y306500D02*
D03*
D87*
X273693Y451000D02*
D03*
D88*
Y461000D02*
D03*
Y471000D02*
D03*
D89*
X304000Y433937D02*
D03*
D90*
Y426063D02*
D03*
D91*
X570737Y267514D02*
D03*
Y275389D02*
D03*
Y283262D02*
D03*
Y291137D02*
D03*
Y299010D02*
D03*
Y306885D02*
D03*
Y314758D02*
D03*
Y322633D02*
D03*
Y330507D02*
D03*
X571026Y357043D02*
D03*
Y364917D02*
D03*
Y372791D02*
D03*
Y380665D02*
D03*
Y388539D02*
D03*
Y396413D02*
D03*
Y404287D02*
D03*
Y412161D02*
D03*
Y420035D02*
D03*
D92*
X570737Y338381D02*
D03*
X571026Y427909D02*
D03*
D93*
X255000Y218000D02*
D03*
D94*
X244764D02*
D03*
X234764D02*
D03*
X249764Y228000D02*
D03*
X239764D02*
D03*
X224764Y218000D02*
D03*
X229764Y228000D02*
D03*
D95*
X219528D02*
D03*
M02*
