G04*
G04 #@! TF.GenerationSoftware,Altium Limited,Altium Designer,24.0.1 (36)*
G04*
G04 Layer_Color=255*
%FSLAX25Y25*%
%MOIN*%
G70*
G04*
G04 #@! TF.SameCoordinates,A2E01C4A-C41F-4235-85C4-DC12FCC8AE1E*
G04*
G04*
G04 #@! TF.FilePolarity,Positive*
G04*
G01*
G75*
%ADD83C,0.06000*%
%ADD84R,0.06201X0.06201*%
%ADD85C,0.06201*%
%ADD86C,0.01575*%
%ADD87R,0.04449X0.04449*%
%ADD88C,0.04449*%
%ADD89C,0.05118*%
G04:AMPARAMS|DCode=90|XSize=51.18mil|YSize=51.18mil|CornerRadius=12.8mil|HoleSize=0mil|Usage=FLASHONLY|Rotation=270.000|XOffset=0mil|YOffset=0mil|HoleType=Round|Shape=RoundedRectangle|*
%AMROUNDEDRECTD90*
21,1,0.05118,0.02559,0,0,270.0*
21,1,0.02559,0.05118,0,0,270.0*
1,1,0.02559,-0.01280,-0.01280*
1,1,0.02559,-0.01280,0.01280*
1,1,0.02559,0.01280,0.01280*
1,1,0.02559,0.01280,-0.01280*
%
%ADD90ROUNDEDRECTD90*%
%ADD91C,0.05150*%
%ADD92R,0.05150X0.05150*%
%ADD93C,0.08268*%
%ADD94C,0.06890*%
%ADD95C,0.09843*%
%ADD98R,0.24016X0.22441*%
%ADD99C,0.70472*%
D83*
X305000Y408000D02*
D03*
X574000Y214000D02*
D03*
Y480000D02*
D03*
D84*
X299000Y474500D02*
D03*
D85*
X308842D02*
D03*
D86*
X227839Y312996D02*
D03*
X230004Y315161D02*
D03*
X234335D02*
D03*
X227839Y308665D02*
D03*
X232169Y312996D02*
D03*
X230004Y310831D02*
D03*
Y306500D02*
D03*
X232169Y308665D02*
D03*
X236500Y312996D02*
D03*
Y308665D02*
D03*
X234335Y310831D02*
D03*
Y306500D02*
D03*
D87*
X273693Y451000D02*
D03*
D88*
Y461000D02*
D03*
Y471000D02*
D03*
D89*
X304000Y433937D02*
D03*
D90*
Y426063D02*
D03*
D91*
X570737Y267514D02*
D03*
Y275389D02*
D03*
Y283262D02*
D03*
Y291137D02*
D03*
Y299010D02*
D03*
Y306885D02*
D03*
Y314758D02*
D03*
Y322633D02*
D03*
Y330507D02*
D03*
X571026Y357043D02*
D03*
Y364917D02*
D03*
Y372791D02*
D03*
Y380665D02*
D03*
Y388539D02*
D03*
Y396413D02*
D03*
Y404287D02*
D03*
Y412161D02*
D03*
Y420035D02*
D03*
D92*
X570737Y338381D02*
D03*
X571026Y427909D02*
D03*
D93*
X255000Y218000D02*
D03*
D94*
X244764D02*
D03*
X234764D02*
D03*
X249764Y228000D02*
D03*
X239764D02*
D03*
X224764Y218000D02*
D03*
X229764Y228000D02*
D03*
D95*
X219528D02*
D03*
D98*
X243000Y464287D02*
D03*
Y362713D02*
D03*
D99*
Y413500D02*
D03*
M02*
