G04*
G04 #@! TF.GenerationSoftware,Altium Limited,Altium Designer,24.0.1 (36)*
G04*
G04 Layer_Color=32768*
%FSLAX25Y25*%
%MOIN*%
G70*
G04*
G04 #@! TF.SameCoordinates,A2E01C4A-C41F-4235-85C4-DC12FCC8AE1E*
G04*
G04*
G04 #@! TF.FilePolarity,Positive*
G04*
G01*
G75*
%ADD102C,0.00197*%
%ADD103C,0.00394*%
D102*
X205205Y350508D02*
X285126D01*
X205205D02*
Y476492D01*
X285126D01*
Y350508D02*
Y476492D01*
X256209Y383898D02*
Y396102D01*
X244791Y383898D02*
X256209D01*
X244791Y396102D02*
X256209D01*
X244791Y383898D02*
Y396102D01*
X354225Y359773D02*
Y388947D01*
X375505Y359773D02*
Y388947D01*
X354225Y359773D02*
X375505D01*
X354225Y388947D02*
X375505D01*
X353547Y356863D02*
Y363753D01*
X337799D02*
X353547D01*
X337799Y356863D02*
Y363753D01*
Y356863D02*
X353547D01*
X369992Y394734D02*
Y401624D01*
Y394734D02*
X385740D01*
Y401624D01*
X369992D02*
X385740D01*
X345948Y392280D02*
X352838D01*
Y408028D01*
X345948D02*
X352838D01*
X345948Y392280D02*
Y408028D01*
X376987Y373591D02*
X383876D01*
Y389339D01*
X376987D02*
X383876D01*
X376987Y373591D02*
Y389339D01*
X337013Y373539D02*
Y380429D01*
Y373539D02*
X352761D01*
Y380429D01*
X337013D02*
X352761D01*
X339286Y381206D02*
X352775D01*
X339286Y388946D02*
X352775D01*
X339286Y381206D02*
Y388946D01*
X352775Y381206D02*
Y388946D01*
X339256Y365104D02*
X352744D01*
X339256Y372844D02*
X352744D01*
X339256Y365104D02*
Y372844D01*
X352744Y365104D02*
Y372844D01*
X356134Y401606D02*
X369623D01*
X356134Y393866D02*
X369623D01*
Y401606D01*
X356134Y393866D02*
Y401606D01*
X383865Y359801D02*
Y373289D01*
X376125Y359801D02*
Y373289D01*
Y359801D02*
X383865D01*
X376125Y373289D02*
X383865D01*
X522225Y359773D02*
Y388947D01*
X543505Y359773D02*
Y388947D01*
X522225Y359773D02*
X543505D01*
X522225Y388947D02*
X543505D01*
X505799Y356863D02*
X521547D01*
X505799D02*
Y363753D01*
X521547D01*
Y356863D02*
Y363753D01*
X537992Y401624D02*
X553740D01*
Y394734D02*
Y401624D01*
X537992Y394734D02*
X553740D01*
X537992D02*
Y401624D01*
X513948Y392280D02*
Y408028D01*
X520838D01*
Y392280D02*
Y408028D01*
X513948Y392280D02*
X520838D01*
X544986Y373591D02*
Y389339D01*
X551876D01*
Y373591D02*
Y389339D01*
X544986Y373591D02*
X551876D01*
X505013Y380429D02*
X520761D01*
Y373539D02*
Y380429D01*
X505013Y373539D02*
X520761D01*
X505013D02*
Y380429D01*
X520775Y381206D02*
Y388946D01*
X507286Y381206D02*
Y388946D01*
X520775D01*
X507286Y381206D02*
X520775D01*
X520744Y365104D02*
Y372844D01*
X507256Y365104D02*
Y372844D01*
X520744D01*
X507256Y365104D02*
X520744D01*
X524134Y393866D02*
Y401606D01*
X537623Y393866D02*
Y401606D01*
X524134Y393866D02*
X537623D01*
X524134Y401606D02*
X537623D01*
X544125Y373289D02*
X551865D01*
X544125Y359801D02*
X551865D01*
X544125D02*
Y373289D01*
X551865Y359801D02*
Y373289D01*
X368100Y306089D02*
Y335263D01*
X346820Y306089D02*
Y335263D01*
X368100D01*
X346820Y306089D02*
X368100D01*
X368778Y338172D02*
X384526D01*
Y331283D02*
Y338172D01*
X368778Y331283D02*
X384526D01*
X368778D02*
Y338172D01*
X336585Y293412D02*
X352333D01*
X336585D02*
Y300302D01*
X352333D01*
Y293412D02*
Y300302D01*
X376377Y287008D02*
Y302756D01*
X369487Y287008D02*
X376377D01*
X369487D02*
Y302756D01*
X376377D01*
X345338Y305697D02*
Y321445D01*
X338449Y305697D02*
X345338D01*
X338449D02*
Y321445D01*
X345338D01*
X369564Y314607D02*
X385312D01*
X369564D02*
Y321497D01*
X385312D01*
Y314607D02*
Y321497D01*
X369550Y306090D02*
Y313830D01*
X383038Y306090D02*
Y313830D01*
X369550Y306090D02*
X383038D01*
X369550Y313830D02*
X383038D01*
X369581Y322192D02*
Y329932D01*
X383069Y322192D02*
Y329932D01*
X369581Y322192D02*
X383069D01*
X369581Y329932D02*
X383069D01*
X366191Y293430D02*
Y301170D01*
X352702Y293430D02*
Y301170D01*
X366191D01*
X352702Y293430D02*
X366191D01*
X338460Y321747D02*
X346200D01*
X338460Y335235D02*
X346200D01*
Y321747D02*
Y335235D01*
X338460Y321747D02*
Y335235D01*
X291181Y353719D02*
X298922D01*
X291181Y367207D02*
X298922D01*
Y353719D02*
Y367207D01*
X291181Y353719D02*
Y367207D01*
X272130Y368756D02*
X279870D01*
X272130Y382244D02*
X279870D01*
Y368756D02*
Y382244D01*
X272130Y368756D02*
Y382244D01*
X288370Y460130D02*
X319472D01*
X288370D02*
Y484736D01*
X319472D01*
Y460130D02*
Y484736D01*
X303055Y368626D02*
Y384374D01*
X309945D01*
Y368626D02*
Y384374D01*
X303055Y368626D02*
X309945D01*
X310445Y310000D02*
Y325748D01*
X303555Y310000D02*
X310445D01*
X303555D02*
Y325748D01*
X310445D01*
X303157Y341488D02*
X327842D01*
X303157Y327512D02*
X327842D01*
X303157D02*
Y341488D01*
X327842Y327512D02*
Y341488D01*
X223781Y244422D02*
Y252162D01*
X237269Y244422D02*
Y252162D01*
X223781Y244422D02*
X237269D01*
X223781Y252162D02*
X237269D01*
X242000Y266945D02*
X257748D01*
Y260055D02*
Y266945D01*
X242000Y260055D02*
X257748D01*
X242000D02*
Y266945D01*
X178823Y268665D02*
X259531D01*
Y345437D01*
X178823D02*
X259531D01*
X178823Y268665D02*
Y345437D01*
X265910Y428130D02*
Y435870D01*
X252091Y428130D02*
Y435870D01*
X265910D01*
X252091Y428130D02*
X265910D01*
X252366Y426279D02*
X265634D01*
X252366Y418720D02*
X265634D01*
Y426279D01*
X252366Y418720D02*
Y426279D01*
X251252Y437181D02*
X282748D01*
Y484819D01*
X251252D02*
X282748D01*
X251252Y437181D02*
Y484819D01*
X291618Y457272D02*
X321382D01*
X291618Y443728D02*
Y457272D01*
Y443728D02*
X321382D01*
Y457272D01*
X215220Y252890D02*
Y266158D01*
X222779Y252890D02*
Y266158D01*
X215220D02*
X222779D01*
X215220Y252890D02*
X222779D01*
X271130Y315244D02*
X278870D01*
X271130Y301756D02*
X278870D01*
X271130D02*
Y315244D01*
X278870Y301756D02*
Y315244D01*
X410225Y388947D02*
X431505D01*
X410225Y359773D02*
X431505D01*
Y388947D01*
X410225Y359773D02*
Y388947D01*
X432986Y373591D02*
X439876D01*
Y389339D01*
X432986D02*
X439876D01*
X432986Y373591D02*
Y389339D01*
X409547Y356863D02*
Y363753D01*
X393799D02*
X409547D01*
X393799Y356863D02*
Y363753D01*
Y356863D02*
X409547D01*
X401948Y392280D02*
X408838D01*
Y408028D01*
X401948D02*
X408838D01*
X401948Y392280D02*
Y408028D01*
X395286Y381206D02*
X408775D01*
X395286Y388946D02*
X408775D01*
X395286Y381206D02*
Y388946D01*
X408775Y381206D02*
Y388946D01*
X439865Y359801D02*
Y373289D01*
X432125Y359801D02*
Y373289D01*
Y359801D02*
X439865D01*
X432125Y373289D02*
X439865D01*
X393013Y373539D02*
Y380429D01*
Y373539D02*
X408761D01*
Y380429D01*
X393013D02*
X408761D01*
X395256Y365104D02*
X408744D01*
X395256Y372844D02*
X408744D01*
X395256Y365104D02*
Y372844D01*
X408744Y365104D02*
Y372844D01*
X425992Y394734D02*
Y401624D01*
Y394734D02*
X441740D01*
Y401624D01*
X425992D02*
X441740D01*
X412134Y401606D02*
X425623D01*
X412134Y393866D02*
X425623D01*
Y401606D01*
X412134Y393866D02*
Y401606D01*
X466225Y388947D02*
X487505D01*
X466225Y359773D02*
X487505D01*
Y388947D01*
X466225Y359773D02*
Y388947D01*
X488986Y373591D02*
X495876D01*
Y389339D01*
X488986D02*
X495876D01*
X488986Y373591D02*
Y389339D01*
X465547Y356863D02*
Y363753D01*
X449799D02*
X465547D01*
X449799Y356863D02*
Y363753D01*
Y356863D02*
X465547D01*
X457948Y392280D02*
X464838D01*
Y408028D01*
X457948D02*
X464838D01*
X457948Y392280D02*
Y408028D01*
X451286Y381206D02*
X464775D01*
X451286Y388946D02*
X464775D01*
X451286Y381206D02*
Y388946D01*
X464775Y381206D02*
Y388946D01*
X495865Y359801D02*
Y373289D01*
X488125Y359801D02*
Y373289D01*
Y359801D02*
X495865D01*
X488125Y373289D02*
X495865D01*
X449013Y373539D02*
Y380429D01*
Y373539D02*
X464761D01*
Y380429D01*
X449013D02*
X464761D01*
X451256Y365104D02*
X464744D01*
X451256Y372844D02*
X464744D01*
X451256Y365104D02*
Y372844D01*
X464744Y365104D02*
Y372844D01*
X481992Y394734D02*
Y401624D01*
Y394734D02*
X497740D01*
Y401624D01*
X481992D02*
X497740D01*
X468134Y401606D02*
X481623D01*
X468134Y393866D02*
X481623D01*
Y401606D01*
X468134Y393866D02*
Y401606D01*
X514820Y306089D02*
X536100D01*
X514820Y335263D02*
X536100D01*
X514820Y306089D02*
Y335263D01*
X536100Y306089D02*
Y335263D01*
X506449Y321445D02*
X513338D01*
X506449Y305697D02*
Y321445D01*
Y305697D02*
X513338D01*
Y321445D01*
X536778Y331283D02*
Y338172D01*
Y331283D02*
X552526D01*
Y338172D01*
X536778D02*
X552526D01*
X537487Y302756D02*
X544377D01*
X537487Y287008D02*
Y302756D01*
Y287008D02*
X544377D01*
Y302756D01*
X537550Y313830D02*
X551039D01*
X537550Y306090D02*
X551039D01*
Y313830D01*
X537550Y306090D02*
Y313830D01*
X506460Y321747D02*
Y335235D01*
X514200Y321747D02*
Y335235D01*
X506460D02*
X514200D01*
X506460Y321747D02*
X514200D01*
X553312Y314607D02*
Y321497D01*
X537564D02*
X553312D01*
X537564Y314607D02*
Y321497D01*
Y314607D02*
X553312D01*
X537581Y329932D02*
X551069D01*
X537581Y322192D02*
X551069D01*
Y329932D01*
X537581Y322192D02*
Y329932D01*
X520333Y293412D02*
Y300302D01*
X504585D02*
X520333D01*
X504585Y293412D02*
Y300302D01*
Y293412D02*
X520333D01*
X520702Y293430D02*
X534191D01*
X520702Y301170D02*
X534191D01*
X520702Y293430D02*
Y301170D01*
X534191Y293430D02*
Y301170D01*
X458820Y306089D02*
X480100D01*
X458820Y335263D02*
X480100D01*
X458820Y306089D02*
Y335263D01*
X480100Y306089D02*
Y335263D01*
X450449Y321445D02*
X457338D01*
X450449Y305697D02*
Y321445D01*
Y305697D02*
X457338D01*
Y321445D01*
X480778Y331283D02*
Y338172D01*
Y331283D02*
X496526D01*
Y338172D01*
X480778D02*
X496526D01*
X481487Y302756D02*
X488377D01*
X481487Y287008D02*
Y302756D01*
Y287008D02*
X488377D01*
Y302756D01*
X481550Y313830D02*
X495039D01*
X481550Y306090D02*
X495039D01*
Y313830D01*
X481550Y306090D02*
Y313830D01*
X450460Y321747D02*
Y335235D01*
X458200Y321747D02*
Y335235D01*
X450460D02*
X458200D01*
X450460Y321747D02*
X458200D01*
X497312Y314607D02*
Y321497D01*
X481564D02*
X497312D01*
X481564Y314607D02*
Y321497D01*
Y314607D02*
X497312D01*
X481581Y329932D02*
X495069D01*
X481581Y322192D02*
X495069D01*
Y329932D01*
X481581Y322192D02*
Y329932D01*
X464333Y293412D02*
Y300302D01*
X448585D02*
X464333D01*
X448585Y293412D02*
Y300302D01*
Y293412D02*
X464333D01*
X464702Y293430D02*
X478191D01*
X464702Y301170D02*
X478191D01*
X464702Y293430D02*
Y301170D01*
X478191Y293430D02*
Y301170D01*
X402820Y306089D02*
X424100D01*
X402820Y335263D02*
X424100D01*
X402820Y306089D02*
Y335263D01*
X424100Y306089D02*
Y335263D01*
X394449Y321445D02*
X401338D01*
X394449Y305697D02*
Y321445D01*
Y305697D02*
X401338D01*
Y321445D01*
X424778Y331283D02*
Y338172D01*
Y331283D02*
X440526D01*
Y338172D01*
X424778D02*
X440526D01*
X425487Y302756D02*
X432376D01*
X425487Y287008D02*
Y302756D01*
Y287008D02*
X432376D01*
Y302756D01*
X425550Y313830D02*
X439039D01*
X425550Y306090D02*
X439039D01*
Y313830D01*
X425550Y306090D02*
Y313830D01*
X394460Y321747D02*
Y335235D01*
X402200Y321747D02*
Y335235D01*
X394460D02*
X402200D01*
X394460Y321747D02*
X402200D01*
X441312Y314607D02*
Y321497D01*
X425564D02*
X441312D01*
X425564Y314607D02*
Y321497D01*
Y314607D02*
X441312D01*
X425581Y329932D02*
X439069D01*
X425581Y322192D02*
X439069D01*
Y329932D01*
X425581Y322192D02*
Y329932D01*
X408333Y293412D02*
Y300302D01*
X392585D02*
X408333D01*
X392585Y293412D02*
Y300302D01*
Y293412D02*
X408333D01*
X408702Y293430D02*
X422191D01*
X408702Y301170D02*
X422191D01*
X408702Y293430D02*
Y301170D01*
X422191Y293430D02*
Y301170D01*
X558729Y258853D02*
X578414D01*
Y347042D01*
X558729D02*
X578414D01*
X558729Y258853D02*
Y347042D01*
X559019Y348382D02*
X578704D01*
Y436571D01*
X559019D02*
X578704D01*
X559019Y348382D02*
Y436571D01*
X317630Y419256D02*
X325370D01*
X317630Y432744D02*
X325370D01*
Y419256D02*
Y432744D01*
X317630Y419256D02*
Y432744D01*
X314291Y318130D02*
Y325870D01*
X327780Y318130D02*
Y325870D01*
X314291Y318130D02*
X327780D01*
X314291Y325870D02*
X327780D01*
X327842Y353512D02*
Y367488D01*
X303157Y353512D02*
Y367488D01*
Y353512D02*
X327842D01*
X303157Y367488D02*
X327842D01*
X262744Y330023D02*
X278492D01*
X262744D02*
Y336913D01*
X278492D01*
Y330023D02*
Y336913D01*
X262692Y338619D02*
X278440D01*
X262692D02*
Y345509D01*
X278440D01*
Y338619D02*
Y345509D01*
X323945Y270000D02*
Y285748D01*
X317055Y270000D02*
X323945D01*
X317055D02*
Y285748D01*
X323945D01*
X291291Y255630D02*
Y263370D01*
X304780Y255630D02*
Y263370D01*
X291291Y255630D02*
X304780D01*
X291291Y263370D02*
X304780D01*
X274055Y271126D02*
Y286874D01*
X280945D01*
Y271126D02*
Y286874D01*
X274055Y271126D02*
X280945D01*
X273379Y271278D02*
Y287026D01*
X266490Y271278D02*
X273379D01*
X266490D02*
Y287026D01*
X273379D01*
X262130Y315492D02*
X269870D01*
X262130Y301673D02*
X269870D01*
X262130D02*
Y315492D01*
X269870Y301673D02*
Y315492D01*
X314256Y368130D02*
Y375870D01*
X327744Y368130D02*
Y375870D01*
X314256Y368130D02*
X327744D01*
X314256Y375870D02*
X327744D01*
X261055Y373626D02*
Y389374D01*
X267945D01*
Y373626D02*
Y389374D01*
X261055Y373626D02*
X267945D01*
X293555Y236126D02*
Y251874D01*
X300445D01*
Y236126D02*
Y251874D01*
X293555Y236126D02*
X300445D01*
X310555Y235626D02*
Y251374D01*
X317445D01*
Y235626D02*
Y251374D01*
X310555Y235626D02*
X317445D01*
X272126Y253945D02*
X287874D01*
Y247055D02*
Y253945D01*
X272126Y247055D02*
X287874D01*
X272126D02*
Y253945D01*
X243721Y257370D02*
X257209D01*
X243721Y249630D02*
X257209D01*
Y257370D01*
X243721Y249630D02*
Y257370D01*
X272505Y231906D02*
X287072D01*
X272505Y209465D02*
Y231906D01*
Y209465D02*
X287072D01*
Y231906D01*
X205555Y250126D02*
X212445D01*
Y265874D01*
X205555D02*
X212445D01*
X205555Y250126D02*
Y265874D01*
D103*
X250500Y389016D02*
Y390984D01*
X249516Y390000D02*
X251484D01*
M02*
