G04*
G04 #@! TF.GenerationSoftware,Altium Limited,Altium Designer,24.0.1 (36)*
G04*
G04 Layer_Color=16711935*
%FSLAX25Y25*%
%MOIN*%
G70*
G04*
G04 #@! TF.SameCoordinates,A2E01C4A-C41F-4235-85C4-DC12FCC8AE1E*
G04*
G04*
G04 #@! TF.FilePolarity,Positive*
G04*
G01*
G75*
%ADD13C,0.00600*%
%ADD15C,0.01000*%
D13*
X601883Y331860D02*
Y327862D01*
X597885Y331860D01*
X596885D01*
X595885Y330861D01*
Y328861D01*
X596885Y327862D01*
Y333860D02*
X595885Y334859D01*
Y336859D01*
X596885Y337859D01*
X597885D01*
X598884Y336859D01*
X599884Y337859D01*
X600884D01*
X601883Y336859D01*
Y334859D01*
X600884Y333860D01*
X599884D01*
X598884Y334859D01*
X597885Y333860D01*
X596885D01*
X598884Y334859D02*
Y336859D01*
X601883Y343857D02*
Y339858D01*
X597885Y343857D01*
X596885D01*
X595885Y342857D01*
Y340858D01*
X596885Y339858D01*
Y345856D02*
X595885Y346856D01*
Y348855D01*
X596885Y349855D01*
X597885D01*
X598884Y348855D01*
X599884Y349855D01*
X600884D01*
X601883Y348855D01*
Y346856D01*
X600884Y345856D01*
X599884D01*
X598884Y346856D01*
X597885Y345856D01*
X596885D01*
X598884Y346856D02*
Y348855D01*
X601883Y351854D02*
X600884D01*
Y352854D01*
X601883D01*
Y351854D01*
X596885Y356852D02*
X595885Y357852D01*
Y359851D01*
X596885Y360851D01*
X597885D01*
X598884Y359851D01*
X599884Y360851D01*
X600884D01*
X601883Y359851D01*
Y357852D01*
X600884Y356852D01*
X599884D01*
X598884Y357852D01*
X597885Y356852D01*
X596885D01*
X598884Y357852D02*
Y359851D01*
X596885Y362850D02*
X595885Y363850D01*
Y365849D01*
X596885Y366849D01*
X600884D01*
X601883Y365849D01*
Y363850D01*
X600884Y362850D01*
X596885D01*
X372361Y505036D02*
X373361Y506035D01*
X375360D01*
X376360Y505036D01*
Y504036D01*
X375360Y503036D01*
X374360D01*
X375360D01*
X376360Y502037D01*
Y501037D01*
X375360Y500037D01*
X373361D01*
X372361Y501037D01*
X378359Y506035D02*
X382358D01*
Y505036D01*
X378359Y501037D01*
Y500037D01*
X384357Y501037D02*
X385357Y500037D01*
X387356D01*
X388356Y501037D01*
Y505036D01*
X387356Y506035D01*
X385357D01*
X384357Y505036D01*
Y504036D01*
X385357Y503036D01*
X388356D01*
X390355Y500037D02*
X392354D01*
X391355D01*
Y506035D01*
X390355Y505036D01*
X395354Y500037D02*
Y501037D01*
X396353D01*
Y500037D01*
X395354D01*
X404351Y506035D02*
X400352D01*
Y503036D01*
X402351Y504036D01*
X403351D01*
X404351Y503036D01*
Y501037D01*
X403351Y500037D01*
X401352D01*
X400352Y501037D01*
X406350Y505036D02*
X407350Y506035D01*
X409349D01*
X410349Y505036D01*
Y501037D01*
X409349Y500037D01*
X407350D01*
X406350Y501037D01*
Y505036D01*
D15*
X582530Y488380D02*
X582530Y205500D01*
X203500D02*
X582530D01*
X203380Y205620D02*
X203500Y205500D01*
X203380Y205620D02*
Y488380D01*
X582530D01*
X595677D02*
X597677Y482380D01*
X593677D02*
X595677Y488380D01*
X593677Y211500D02*
X595677Y205500D01*
X597677Y211500D01*
X595677Y368449D02*
Y488380D01*
Y205500D02*
Y326262D01*
X584030Y488380D02*
X596677D01*
X584030Y205500D02*
X596677D01*
X576530Y501636D02*
X582530Y503636D01*
X576530Y505636D02*
X582530Y503636D01*
X203380D02*
X209380Y505636D01*
X203380Y503636D02*
X209380Y501636D01*
X411949Y503636D02*
X582530D01*
X203380D02*
X370761D01*
X582530Y489880D02*
Y504636D01*
X203380Y489880D02*
Y504636D01*
M02*
